<svg width="20" height="16" viewBox="0 0 20 16" fill="none" xmlns="http://www.w3.org/2000/svg">
<path d="M0.403502 3.06085L9.9999 7.85845L19.5963 3.06085C19.5608 2.44938 19.2928 1.87463 18.8473 1.45432C18.4018 1.03401 17.8124 0.799937 17.1999 0.800049H2.7999C2.1874 0.799937 1.59804 1.03401 1.15252 1.45432C0.706992 1.87463 0.439027 2.44938 0.403502 3.06085Z" fill="#6B7280"/>
<path d="M19.5999 5.74165L9.9999 10.5416L0.399902 5.74165V12.8C0.399902 13.4366 0.652759 14.047 1.10285 14.4971C1.55293 14.9472 2.16338 15.2 2.7999 15.2H17.1999C17.8364 15.2 18.4469 14.9472 18.897 14.4971C19.347 14.047 19.5999 13.4366 19.5999 12.8V5.74165Z" fill="#6B7280"/>
</svg>
