<!DOCTYPE svg PUBLIC "-//W3C//DTD SVG 1.1//EN" "http://www.w3.org/Graphics/SVG/1.1/DTD/svg11.dtd">
<!-- Uploaded to: SVG Repo, www.svgrepo.com, Transformed by: SVG Repo Mixer Tools -->
<svg fill="#ffffff" width="336px" height="336px" viewBox="0 0 32 32" id="template" xmlns="http://www.w3.org/2000/svg" stroke="#ffffff" stroke-width="0.8960000000000001">

<g id="SVGRepo_bgCarrier" stroke-width="0"/>

<g id="SVGRepo_tracerCarrier" stroke-linecap="round" stroke-linejoin="round"/>

<g id="SVGRepo_iconCarrier">

<title/>

<path d="M10.167,18.969a.356.356,0,0,0-.355.355v5.413a2.358,2.358,0,0,0,2.355,2.355h7.666a2.358,2.358,0,0,0,2.355-2.355V19.324a.356.356,0,0,0-.355-.355Zm11.312,5.768a1.648,1.648,0,0,1-1.646,1.646H12.167a1.648,1.648,0,0,1-1.646-1.646V19.678H21.479Z"/>

<path d="M30.057,22.938l-1.088-6.323a.355.355,0,0,0-.35-.294H26V14.154a5.059,5.059,0,0,0,1.068-3.09v-1A5.1,5.1,0,0,0,24.1,5.44V2a.355.355,0,0,0-.355-.354H20.836A.355.355,0,0,0,20.481,2V4.956H19.362V4.609a1.857,1.857,0,0,0-1.854-1.855H14.492a1.857,1.857,0,0,0-1.854,1.855v.347H11.045V2a.354.354,0,0,0-.355-.354H7.777A.354.354,0,0,0,7.423,2V5.7a5.088,5.088,0,0,0-2.495,4.364v1A5.059,5.059,0,0,0,6,14.154v2.167H3.381a.355.355,0,0,0-.35.294L1.943,22.938A4.013,4.013,0,0,0,2.6,25.943a2.633,2.633,0,0,0,2.108,1.149H6a3.291,3.291,0,0,0,3.287,3.262H22.714A3.291,3.291,0,0,0,26,27.092h1.291A2.633,2.633,0,0,0,29.4,25.943,4.013,4.013,0,0,0,30.057,22.938ZM6,26.383H4.708a1.934,1.934,0,0,1-1.536-.859,3.285,3.285,0,0,1-.529-2.466L3.68,17.03H6ZM21.19,2.354h2.2v2.83a5.049,5.049,0,0,0-1.429-.228H21.19ZM13.347,4.609a1.146,1.146,0,0,1,1.145-1.146h3.016a1.146,1.146,0,0,1,1.145,1.146v.347H13.347ZM8.132,2.354h2.2v2.6h-.3a5.062,5.062,0,0,0-1.9.376ZM25.3,27.065a2.584,2.584,0,0,1-2.581,2.581H9.286a2.584,2.584,0,0,1-2.581-2.581V14.9a5.06,5.06,0,0,0,3.329,1.267h3.571A1.557,1.557,0,0,0,15.151,17.6h1.7A1.557,1.557,0,0,0,18.4,16.171h3.571A5.06,5.06,0,0,0,25.3,14.9ZM14.3,16.04V14.914a.851.851,0,0,1,.85-.851h1.7a.851.851,0,0,1,.85.851V16.04a.852.852,0,0,1-.85.851h-1.7A.852.852,0,0,1,14.3,16.04Zm7.665-.578H18.408v-.548a1.562,1.562,0,0,0-1.559-1.56h-1.7a1.562,1.562,0,0,0-1.559,1.56v.548H10.034a4.4,4.4,0,0,1-4.4-4.4v-1a4.4,4.4,0,0,1,4.4-4.4H21.966a4.4,4.4,0,0,1,4.4,4.4v1A4.4,4.4,0,0,1,21.966,15.462Zm6.862,10.062a1.934,1.934,0,0,1-1.536.859H26V17.03H28.32l1.037,6.029A3.283,3.283,0,0,1,28.828,25.524Z"/>

</g>

</svg>