  <svg
    width="242"
    height="242"
    viewBox="0 0 242 242"
    fill="none"
    xmlns="http://www.w3.org/2000/svg"
  >
    <path
      d="M21.296 134.433C21.1266 132.28 20.9959 130.123 20.8918 127.972"
      stroke="black"
      stroke-miterlimit="10"
    />
    <path d="M143.782 211.905H82.309" stroke="#CCDDE2" stroke-miterlimit="10" />
    <path
      d="M161.729 57.9082C161.729 57.9082 179.845 49.3535 195.214 66.0442C200.236 71.4989 203.662 78.7371 203.904 86.2052C204.014 89.8492 203.427 93.4805 202.174 96.904C200.899 100.399 198.609 102.712 196.85 105.824C194.152 110.623 199.793 111.472 202.82 113.798C204.832 115.357 206.741 117.045 208.534 118.851C212.575 122.886 216.13 127.38 219.129 132.241C225.066 141.922 228.64 152.866 229.564 164.185C230.476 175.346 229.777 187.465 224.053 197.38C221.299 202.155 217.151 206.837 212.05 209.064C205.274 212.019 197.663 211.907 190.423 211.907H175.014"
      stroke="#CCDDE2"
      stroke-miterlimit="10"
    />
    <path
      d="M86.2125 169.434C85.6051 173.756 84.7 178.715 83.7005 183.678L82.522 184.014C78.7502 185.074 74.7448 184.957 71.0415 183.678L72.5855 178.431L63.1862 151.085C63.1862 151.085 70.3712 148.762 76.2711 147.037L76.9487 147.008C80.1722 147.688 86.8151 150.241 87.0232 159.802C87.0377 160.262 87.0232 160.746 87.0232 161.274C87.9597 164.359 87.5871 167.079 86.2125 169.434Z"
      fill="#EC1A3A"
    />
    <path
      d="M64.0888 65.34C63.9963 65.1041 63.8149 64.914 63.5837 64.8104C63.3525 64.7068 63.0899 64.698 62.8522 64.7858C62.719 64.826 62.596 64.8946 62.4917 64.9867C62.119 65.2892 62.0343 65.8191 62.0222 66.3225C61.9883 67.472 61.923 68.6239 61.8383 69.7686C61.8383 69.846 61.8261 69.9331 61.8261 70.0106C61.7729 70.9326 61.8116 72.0506 61.4196 72.8541C61.3945 72.9154 61.3515 72.9677 61.2962 73.0041C61.1655 73.0646 61.0276 72.9339 60.9429 72.8154C60.7009 72.462 60.4589 72.116 60.2169 71.7554C60.0257 71.4674 59.8103 71.1552 59.4763 71.0633C58.9802 70.9253 58.5083 71.3634 58.2349 71.8086C57.3516 73.2606 57.2669 75.6395 58.6342 76.8568C60.0015 78.074 56.9402 80.4674 54.7477 81.4741C54.3806 81.6805 53.9959 81.8538 53.5982 81.992C53.5788 81.992 54.3895 82.1735 54.3701 82.1808C52.6641 82.7747 50.8869 83.1401 49.0849 83.2673C46.9456 83.4101 44.8595 83.1415 43.3422 82.2122C43.4075 81.9702 43.9254 80.2762 43.9569 80.0342C44.0682 79.1896 44.1481 78.3523 44.1989 77.5029C44.2908 75.9081 44.2836 74.3109 44.2231 72.721C44.0029 67.0001 45.0217 62.194 47.3836 61.4607C47.5701 61.4048 47.7489 61.3259 47.916 61.226C48.9808 60.6379 49.5495 59.3965 49.0607 58.2252C49.0268 58.1453 48.988 58.0679 48.9542 57.9832C48.916 57.8997 48.8723 57.8189 48.8235 57.7412C53.436 56.3085 56.5675 57.3031 59.7329 59.0359C60.3352 59.5172 60.9014 60.0421 61.4269 60.6065C62.6658 61.9515 63.5769 63.565 64.0888 65.3206V65.34Z"
      fill="#EC1A3A"
    />
    <path
      d="M174.966 120.344H159.236V82.747C159.236 82.747 156.332 115.415 148.375 133.923H99.658C105.401 130.273 110.006 124.761 113.072 118.827C114.282 116.479 116.218 112.995 119.437 113.909C120.201 114.125 121.327 114.263 121.895 113.563C122.092 113.295 122.203 112.974 122.215 112.641C122.491 109.215 118.938 106.33 116.01 105.42C113.082 104.51 109.66 104.936 107.329 107.063C105.65 108.6 104.597 110.64 103.368 112.53C102.63 113.65 101.755 114.674 100.764 115.577C102.027 107.905 103.153 100.573 103.315 97.8745C106.395 95.4424 108.658 91.476 109.461 87.967C110.345 84.1337 111.124 80.3851 112.496 76.7963L123.727 76.835C124.15 76.835 124.556 76.667 124.855 76.3679C125.154 76.0688 125.322 75.6632 125.322 75.2402V56.5869C125.323 56.1677 125.157 55.7654 124.862 55.4679C124.567 55.1704 124.166 55.0019 123.747 54.9993L116.099 54.934C118.879 54.3531 121.697 53.977 124.531 53.8087C124.589 53.8087 124.642 53.8087 124.693 53.8087C126.559 53.6853 129.828 53.632 131.711 53.6127C129.468 54.8227 128.081 57.3927 128.323 59.6627C128.366 60.1461 128.489 60.6189 128.688 61.0614C130.605 65.2722 135.653 66.5161 139.82 65.2916C144.457 63.9388 147.864 59.6748 147.661 54.7694C150.565 55.1954 153.44 55.7358 156.286 56.3908C160.611 57.3855 164.829 58.7261 168.248 61.6495C171.229 64.1881 173.756 67.4575 174.925 71.1528C179.944 86.953 178.4 104.585 174.966 120.344Z"
      fill="#2E2E2E"
    />
    <path
      d="M103.44 97.8745C103.087 103.649 102.177 109.418 101.19 115.173"
      stroke="black"
      stroke-miterlimit="10"
    />
    <path
      d="M112.622 76.7962C111.247 80.3851 110.471 84.1337 109.587 87.9669C108.777 91.4638 106.519 95.4423 103.44 97.8744C100.856 99.9145 97.6906 100.875 94.3026 99.5878C89.7578 97.855 88.163 92.8457 87.6064 88.4292C86.883 82.9298 86.8391 77.3623 87.4757 71.8522C88.117 73.2776 90.7379 77.6142 98.8667 76.4744C99.0849 76.6374 99.3472 76.731 99.6193 76.743L112.622 76.7962Z"
      fill="#2E2E2E"
    />
    <path
      d="M108.058 64.389C109.95 63.905 111.102 65.7248 110.821 67.1091C110.364 69.3669 107.116 70.2551 105.183 70.2962C103.634 70.3277 99.8589 69.9187 98.3198 69.7396"
      stroke="black"
      stroke-miterlimit="10"
    />
    <path
      d="M97.6833 65.507C100.024 66.1836 102.504 66.2245 104.866 65.6256C106.853 65.115 109.2 64.1736 110.241 62.2836C110.848 61.1849 110.364 59.4328 109.096 59.0456C107.632 58.6028 106.277 60.0596 104.951 60.4274C104.095 60.6604 103.222 60.8223 102.339 60.9114C102.097 60.9381 101.87 60.9574 101.635 60.9768C100.4 61.0756 99.1588 61.0667 97.9253 60.9502C97.7941 60.9502 97.6661 60.9088 97.5597 60.8319C97.4533 60.7551 97.3739 60.6467 97.3326 60.5221C97.2913 60.3975 97.2904 60.2631 97.3299 60.1379C97.3694 60.0127 97.4473 59.9032 97.5526 59.8249L97.7753 59.6627"
      stroke="black"
      stroke-miterlimit="10"
    />
    <path
      d="M112.622 76.7963C111.247 80.3851 110.471 84.1337 109.587 87.967C108.097 94.4018 101.739 102.419 94.3026 99.583C89.7578 97.8503 88.163 92.8409 87.6064 88.4244C86.7352 81.5854 86.8078 74.5602 88.0904 67.7793C89.1552 62.194 91.0452 56.3279 96.4806 53.5812L99.0312 52.3059C99.6395 51.9984 100.344 51.9413 100.994 52.1466C101.644 52.3519 102.188 52.8034 102.509 53.4045C102.705 53.778 102.808 54.1929 102.811 54.6145C102.814 54.6762 102.809 54.738 102.797 54.7985V54.7985"
      stroke="black"
      stroke-miterlimit="10"
    />
    <path
      d="M164.429 129.291C165.743 129.25 167.059 129.283 168.369 129.39C169.439 129.477 170.547 129.528 171.566 129.927C172.406 130.261 173.282 131.058 173.238 132.03C173.158 133.937 170.661 133.923 169.291 133.923"
      stroke="black"
      stroke-miterlimit="10"
    />
    <path
      opacity="0.54"
      d="M140.926 127.474L152.315 98.2956C152.456 97.7301 152.466 97.1399 152.344 96.5699C152.223 95.9999 151.973 95.4652 151.614 95.0064C151.254 94.5476 150.795 94.1768 150.271 93.9224C149.746 93.6679 149.171 93.5364 148.588 93.5379H103.363C102.349 93.5402 101.366 93.8832 100.571 94.5117C99.7755 95.1402 99.2146 96.0177 98.978 97.0033L86.4956 126.174C86.3603 126.737 86.3543 127.324 86.4783 127.889C86.6023 128.455 86.853 128.986 87.2115 129.44C87.57 129.895 88.027 130.263 88.5481 130.516C89.0692 130.769 89.6408 130.9 90.22 130.9H136.539C137.547 130.9 138.527 130.562 139.322 129.941C140.117 129.321 140.681 128.452 140.926 127.474Z"
      fill="white"
    />
    <path
      d="M140.926 127.474L152.315 98.2956C152.456 97.7301 152.466 97.1399 152.344 96.5699C152.223 95.9999 151.973 95.4652 151.614 95.0064C151.254 94.5476 150.795 94.1768 150.271 93.9224C149.746 93.6679 149.171 93.5364 148.588 93.5379H103.363C102.349 93.5402 101.366 93.8832 100.571 94.5117C99.7755 95.1402 99.2146 96.0177 98.978 97.0033L86.4956 126.174C86.3603 126.737 86.3543 127.324 86.4783 127.889C86.6023 128.455 86.853 128.986 87.2115 129.44C87.57 129.895 88.027 130.263 88.5481 130.516C89.0692 130.769 89.6408 130.9 90.22 130.9H136.539C137.547 130.9 138.527 130.562 139.322 129.941C140.117 129.321 140.681 128.452 140.926 127.474Z"
      fill="#EC1A3A"
    />
    <path
      d="M140.926 127.474L152.315 98.2956C152.456 97.7301 152.466 97.1399 152.344 96.5699C152.223 95.9999 151.973 95.4652 151.614 95.0064C151.254 94.5476 150.795 94.1768 150.271 93.9224C149.746 93.6679 149.171 93.5364 148.588 93.5379H103.363C102.349 93.5402 101.366 93.8832 100.571 94.5117C99.7755 95.1402 99.2146 96.0177 98.978 97.0033L86.4956 126.174C86.3603 126.737 86.3543 127.324 86.4783 127.889C86.6023 128.455 86.853 128.986 87.2115 129.44C87.57 129.895 88.027 130.263 88.5481 130.516C89.0692 130.769 89.6408 130.9 90.22 130.9H136.539C137.547 130.9 138.527 130.562 139.322 129.941C140.117 129.321 140.681 128.452 140.926 127.474V127.474Z"
      stroke="black"
      stroke-linecap="square"
      stroke-linejoin="round"
    />
    <path
      d="M139.259 126.293L149.767 99.3749C149.897 98.8539 149.906 98.31 149.795 97.7847C149.684 97.2594 149.454 96.7664 149.123 96.3432C148.793 95.92 148.37 95.5777 147.887 95.3423C147.404 95.107 146.874 94.9848 146.337 94.985H104.605C103.668 94.9847 102.758 95.2999 102.022 95.8799C101.286 96.4599 100.767 97.2708 100.549 98.1818L89.056 125.095C88.9321 125.614 88.9275 126.154 89.0423 126.676C89.1572 127.197 89.3886 127.686 89.7193 128.105C90.0499 128.524 90.4712 128.863 90.9515 129.096C91.4317 129.329 91.9586 129.45 92.4924 129.451H135.213C136.143 129.451 137.046 129.141 137.78 128.568C138.513 127.996 139.034 127.195 139.259 126.293Z"
      fill="#EC1A3A"
    />
    <path
      d="M107.615 99.946C108.169 99.1159 109.067 98.736 109.638 99.1207C110.209 99.5055 110.209 100.474 109.657 101.299C109.57 101.426 109.473 101.545 109.367 101.657L113.467 110.313C114.12 109.878 114.839 109.769 115.357 110.112C115.523 110.233 115.66 110.389 115.76 110.569C115.859 110.749 115.918 110.948 115.933 111.153L118.735 110.209L121.184 109.384L121.983 109.123C122.084 108.822 122.223 108.535 122.399 108.271C123.176 107.102 124.446 106.577 125.237 107.109C126.029 107.642 126.038 108.985 125.283 110.144L129.954 116.521C130.973 115.686 132.171 115.427 133.001 115.978C134.131 116.731 134.148 118.694 133.039 120.359C132.994 120.426 132.943 120.48 132.897 120.543L136.004 124.792L136.033 124.833C136.192 125.073 136.249 125.366 136.192 125.648C136.135 125.93 135.968 126.177 135.728 126.336C135.488 126.495 135.195 126.552 134.914 126.495C134.632 126.438 134.384 126.271 134.225 126.031L131.466 121.866C130.593 122.372 129.664 122.469 128.984 122.016C127.904 121.29 127.851 119.48 128.814 117.866L124.344 111.119C123.684 111.567 122.955 111.681 122.433 111.334C122.142 111.128 121.944 110.816 121.881 110.466L121.547 110.558L119.057 111.238L115.867 112.099C115.768 112.481 115.604 112.844 115.383 113.171C114.606 114.338 113.336 114.865 112.545 114.333C111.753 113.8 111.741 112.433 112.518 111.264C112.632 111.093 112.76 110.931 112.9 110.78L108.997 101.962C108.527 102.284 108.007 102.366 107.634 102.117C107.073 101.744 107.063 100.766 107.615 99.946Z"
      fill="#D7E8F0"
    />
    <path
      d="M137.311 100.411H143.361C143.637 100.41 143.908 100.329 144.139 100.178C144.371 100.027 144.554 99.8118 144.665 99.5588C144.698 99.4823 144.716 99.4001 144.718 99.3168C144.718 99.1516 144.652 98.9934 144.535 98.8768C144.418 98.7603 144.259 98.6948 144.094 98.6948H137.664C137.967 99.2006 137.814 99.9097 137.311 100.411Z"
      fill="#D7E8F0"
    />
    <path
      d="M133.4 99.7912C133.401 99.9557 133.467 100.113 133.583 100.229C133.7 100.345 133.857 100.411 134.022 100.411H137.311C137.814 99.9097 137.967 99.2007 137.664 98.6901H134.76C134.484 98.69 134.213 98.7702 133.982 98.921C133.75 99.0718 133.567 99.2867 133.456 99.5395C133.42 99.6187 133.401 99.7043 133.4 99.7912Z"
      fill="#EC1A3A"
    />
    <path
      d="M134.913 100.411C134.93 100.444 134.95 100.475 134.973 100.505C135.404 101.095 136.34 101.151 137.066 100.621C137.152 100.557 137.233 100.487 137.308 100.411C137.812 99.9097 137.964 99.2006 137.662 98.69C137.646 98.6564 137.626 98.6248 137.604 98.5956C137.175 98.0027 136.239 97.9519 135.513 98.477C135.427 98.5418 135.346 98.613 135.271 98.69C134.767 99.1933 134.615 99.8976 134.913 100.411Z"
      fill="white"
    />
    <path
      d="M131.89 103.588C131.891 103.753 131.958 103.91 132.075 104.026C132.192 104.142 132.35 104.208 132.514 104.208H138.862C138.555 103.695 138.707 102.998 139.21 102.487H133.24C132.963 102.487 132.693 102.568 132.461 102.719C132.229 102.87 132.046 103.086 131.934 103.339C131.903 103.418 131.888 103.503 131.89 103.588Z"
      fill="#EC1A3A"
    />
    <path
      d="M138.852 104.208H141.839C142.115 104.208 142.385 104.128 142.616 103.977C142.848 103.827 143.031 103.613 143.143 103.361C143.177 103.284 143.196 103.202 143.199 103.119C143.199 103.037 143.183 102.956 143.152 102.88C143.121 102.805 143.075 102.736 143.017 102.678C142.959 102.62 142.891 102.575 142.815 102.543C142.74 102.512 142.658 102.496 142.577 102.497H139.201C138.697 102.99 138.545 103.695 138.852 104.208Z"
      fill="#D7E8F0"
    />
    <path
      d="M138.852 104.208C138.866 104.241 138.884 104.273 138.906 104.302C139.334 104.895 140.27 104.948 140.996 104.421C141.082 104.356 141.163 104.284 141.238 104.208C141.737 103.704 141.889 102.998 141.592 102.487C141.574 102.454 141.555 102.423 141.534 102.393C141.101 101.802 140.164 101.749 139.438 102.279C139.352 102.342 139.271 102.411 139.196 102.487C138.697 102.99 138.545 103.695 138.852 104.208Z"
      fill="white"
    />
    <path
      d="M136.73 107.978H140.529C140.806 107.978 141.077 107.897 141.308 107.747C141.54 107.596 141.724 107.381 141.836 107.129C141.869 107.052 141.887 106.97 141.889 106.887C141.889 106.721 141.824 106.562 141.707 106.444C141.59 106.327 141.431 106.26 141.265 106.26H137.091C137.391 106.77 137.236 107.475 136.73 107.978Z"
      fill="#EC1A3A"
    />
    <path
      d="M130.578 107.361C130.579 107.442 130.595 107.523 130.626 107.598C130.658 107.673 130.704 107.741 130.762 107.798C130.819 107.855 130.888 107.901 130.963 107.932C131.038 107.963 131.119 107.978 131.2 107.978H136.73C137.229 107.475 137.383 106.768 137.083 106.255H131.938C131.661 106.255 131.39 106.335 131.159 106.487C130.927 106.639 130.744 106.855 130.634 107.109C130.598 107.188 130.579 107.274 130.578 107.361Z"
      fill="#D7E8F0"
    />
    <path
      d="M134.339 107.978C134.357 108.011 134.377 108.043 134.4 108.072C134.828 108.665 135.762 108.716 136.49 108.189C136.576 108.125 136.657 108.054 136.732 107.978C137.231 107.475 137.386 106.768 137.086 106.255C137.07 106.221 137.05 106.19 137.028 106.161C136.594 105.572 135.66 105.522 134.932 106.047C134.846 106.11 134.766 106.18 134.69 106.255C134.191 106.758 134.037 107.467 134.339 107.978Z"
      fill="white"
    />
    <path
      d="M112.169 125.76H115.971C116.247 125.76 116.518 125.679 116.749 125.528C116.981 125.378 117.163 125.163 117.276 124.911C117.309 124.834 117.327 124.752 117.329 124.669C117.329 124.503 117.263 124.344 117.146 124.227C117.029 124.11 116.87 124.044 116.704 124.044H112.53C112.823 124.553 112.668 125.257 112.169 125.76Z"
      fill="#EC1A3A"
    />
    <path
      d="M97.0832 125.143C97.0835 125.224 97.0998 125.305 97.1312 125.38C97.1627 125.455 97.2086 125.523 97.2663 125.58C97.3241 125.638 97.3925 125.683 97.4678 125.714C97.5431 125.745 97.6237 125.76 97.7051 125.76H112.169C112.668 125.257 112.823 124.55 112.523 124.04H98.4432C98.1665 124.039 97.8957 124.12 97.6641 124.271C97.4324 124.422 97.2499 124.638 97.1388 124.891C97.1043 124.971 97.0854 125.056 97.0832 125.143Z"
      fill="#D7E8F0"
    />
    <path
      d="M109.771 125.76C109.789 125.793 109.809 125.825 109.832 125.854C110.26 126.447 111.194 126.498 111.923 125.973C112.008 125.908 112.089 125.836 112.165 125.76C112.663 125.257 112.818 124.55 112.518 124.039C112.502 124.006 112.483 123.974 112.46 123.945C112.027 123.355 111.093 123.304 110.364 123.829C110.278 123.893 110.197 123.963 110.122 124.039C109.626 124.54 109.469 125.249 109.771 125.76Z"
      fill="white"
    />
    <path
      d="M16.4996 135.08C16.4996 135.08 8.51355 171.155 29.0569 178.69C49.6003 186.226 105.093 179.148 82.0307 153.118C58.9681 127.089 16.4996 135.08 16.4996 135.08Z"
      fill="#2E2E2E"
    />
    <path
      d="M116.179 54.9341C118.971 54.3518 121.802 53.9741 124.649 53.8039C124.71 53.8039 124.761 53.8039 124.814 53.8039C126.685 53.6805 129.961 53.6273 131.832 53.6079"
      stroke="black"
      stroke-miterlimit="10"
    />
    <path
      d="M102.34 60.9042C102.321 60.9165 102.308 60.9312 102.289 60.9435"
      stroke="black"
      stroke-miterlimit="10"
    />
    <path
      d="M134.177 45.7379C132.749 46.4881 131.108 45.9799 130.479 44.7021"
      stroke="black"
      stroke-miterlimit="10"
    />
    <path
      d="M125.888 27.5033C125.824 28.6136 126.109 29.7161 126.703 30.6563C127.297 31.5964 128.171 32.3268 129.201 32.745C129.419 32.3451 129.732 32.0045 130.111 31.7528C131.716 30.7146 131.43 33.488 135.786 32.7571C141.824 31.7383 143.363 33.8413 143.363 33.8413C143.496 34.0252 143.121 35.2255 143.068 35.4457C142.826 36.7356 142.584 38.0182 142.364 39.3177C142.222 40.105 142.078 40.8875 141.933 41.6651C142.043 41.5587 142.159 41.4593 142.281 41.3675C143.274 39.8187 144.728 38.0811 146.313 39.4992C146.631 39.7946 146.875 40.1612 147.025 40.5689C147.751 42.5412 146.362 43.8092 144.738 44.5691C144.31 44.8283 143.854 45.0401 143.38 45.2007C143.46 45.6993 143.792 47.6861 143.792 47.6909C143.825 47.8942 147.857 45.4089 148.194 45.1064C148.801 44.3028 149.27 43.403 149.58 42.4444C150.834 38.4901 150.621 33.379 148.097 30.1266C147.47 29.3207 147.889 28.8561 148.07 28.072C148.079 28.0298 148.075 27.986 148.058 27.9462C148.042 27.9064 148.014 27.8725 147.978 27.8488C147.942 27.8251 147.9 27.8127 147.856 27.8132C147.813 27.8137 147.771 27.8272 147.736 27.8518C146.376 28.706 143.915 27.8324 143.915 27.8324C135.929 23.036 131.837 26.0029 129.879 26.1529C129.085 26.2074 128.297 25.9832 127.65 25.5189C127.536 25.7434 127.364 25.9328 127.151 26.0667C126.937 26.2005 126.692 26.2739 126.44 26.2788L126.363 26.695C126.303 27.0114 126.136 27.2972 125.888 27.5033Z"
      fill="#EC1A3A"
    />
    <path
      d="M129.206 32.7547C128.176 32.3365 127.302 31.606 126.708 30.6659C126.114 29.7258 125.829 28.6232 125.893 27.513V27.513C125.917 27.0864 125.978 26.6629 126.077 26.2473L126.147 26.2618C126.243 26.2833 126.34 26.2906 126.438 26.2836C126.689 26.2787 126.935 26.2054 127.148 26.0715C127.361 25.9376 127.534 25.7483 127.648 25.5237C127.714 25.3987 127.761 25.264 127.786 25.1244L128.158 23.0989C128.158 23.0989 129.368 24.7372 131.304 24.5848C133.24 24.4323 137.333 21.4654 145.34 26.2642C145.34 26.2642 147.262 26.9733 148.622 26.119C148.657 26.0944 148.699 26.081 148.742 26.0805C148.785 26.0799 148.828 26.0923 148.863 26.116C148.899 26.1397 148.927 26.1737 148.944 26.2135C148.96 26.2533 148.965 26.2971 148.956 26.3393C148.774 27.1209 148.895 27.7525 149.522 28.5584C152.046 31.8109 152.259 36.9219 151.006 40.8762C150.457 42.5149 149.482 43.9782 148.181 45.116C147.845 45.4185 143.813 47.9039 143.779 47.7006C143.779 47.7006 143.448 45.7089 143.368 45.2104L143.349 45.0967L143.462 45.0628C143.894 44.9293 144.316 44.7676 144.726 44.5788C146.35 43.8189 147.746 42.5508 147.013 40.5785C146.863 40.1708 146.619 39.8043 146.301 39.5089C144.716 38.0908 143.262 39.8283 142.269 41.3771C142.078 41.6712 141.92 41.9862 141.8 42.3161C141.839 42.1031 141.877 41.895 141.918 41.6821C142.064 40.9028 142.207 40.1203 142.349 39.3347C142.591 38.0424 142.816 36.7598 143.053 35.4627C143.097 35.2424 143.482 34.0421 143.349 33.8582C143.349 33.8582 141.81 31.7552 135.772 32.774C131.416 33.5 131.701 30.7316 130.097 31.7697C129.717 32.0214 129.405 32.362 129.187 32.7619C129.119 32.8922 129.06 33.0264 129.008 33.1637C128.999 33.1808 128.992 33.1986 128.986 33.2169C128.877 33.517 128.778 33.8195 128.681 34.1147C127.776 36.9921 127.178 40.0994 127.498 43.122C127.887 46.7858 130.557 51.0934 134.804 50.728C136.14 50.5714 137.443 50.2056 138.666 49.6439"
      stroke="black"
      stroke-miterlimit="10"
    />
    <path
      d="M129.67 40.5636C130.085 40.5518 130.41 40.1351 130.396 39.6328C130.382 39.1304 130.034 38.7327 129.618 38.7445C129.203 38.7562 128.877 39.173 128.892 39.6753C128.906 40.1776 129.254 40.5753 129.67 40.5636Z"
      fill="black"
    />
    <path
      d="M135.357 42.0914C135.772 42.0797 136.097 41.6629 136.083 41.1606C136.069 40.6582 135.721 40.2606 135.305 40.2723C134.89 40.2841 134.564 40.7008 134.578 41.2031C134.593 41.7055 134.941 42.1032 135.357 42.0914Z"
      fill="black"
    />
    <path
      d="M132.902 42.4274C132.902 42.4274 130.702 42.9114 130.924 41.7837C130.992 41.4304 131.544 37.9601 131.544 37.9601C131.544 37.9601 130.518 35.8934 127.834 36.375"
      stroke="black"
      stroke-miterlimit="10"
    />
    <path
      d="M133.889 37.6504C133.889 37.6504 137.376 37.0575 138.712 39.8429"
      stroke="black"
      stroke-miterlimit="10"
    />
    <path
      d="M131.871 53.5787C129.124 55.0307 127.657 58.5252 128.807 61.0541C130.724 65.2673 135.769 66.5064 139.939 65.2891C144.576 63.9339 147.983 59.6602 147.78 54.7597"
      stroke="black"
      stroke-miterlimit="10"
    />
    <path
      d="M148.501 133.92C156.465 115.412 159.357 82.7447 159.357 82.7447V128.323C159.357 129.058 159.501 129.786 159.782 130.465C160.064 131.145 160.476 131.762 160.996 132.282C161.516 132.801 162.133 133.214 162.812 133.495C163.491 133.776 164.219 133.921 164.954 133.92H182.62C183.283 133.931 183.925 133.696 184.425 133.262C184.925 132.827 185.247 132.223 185.328 131.566C185.364 131.204 185.323 130.838 185.209 130.493C185.094 130.147 184.909 129.83 184.664 129.561C184.42 129.291 184.121 129.076 183.788 128.929C183.456 128.783 183.096 128.707 182.732 128.708H175.496C175.207 128.707 174.923 128.64 174.664 128.513C174.405 128.385 174.179 128.2 174.002 127.972C173.826 127.743 173.704 127.478 173.646 127.195C173.588 126.913 173.595 126.62 173.666 126.341C178.022 109.159 180.716 88.9907 175.046 71.1432C173.875 67.46 171.351 64.1784 168.369 61.6423C164.947 58.7189 160.729 57.3782 156.407 56.386C153.556 55.7326 150.68 55.1922 147.78 54.7646C147.771 54.7676 147.762 54.7676 147.753 54.7646C147.734 54.7646 147.714 54.7646 147.702 54.7646H147.683H147.656H147.618"
      stroke="black"
      stroke-miterlimit="10"
    />
    <path
      d="M145.955 46.5414L145.636 52.3228C145.605 52.8877 145.782 53.4443 146.134 53.8875C146.486 54.3307 146.988 54.6297 147.545 54.7282H147.618C147.63 54.7247 147.644 54.7247 147.656 54.7282H147.668H147.702"
      stroke="black"
      stroke-miterlimit="10"
    />
    <path
      d="M147.753 54.755H147.702H147.683H147.668H147.656H147.618H147.545C146.988 54.6565 146.486 54.3574 146.134 53.9142C145.782 53.4711 145.605 52.9145 145.636 52.3495L145.955 46.5681"
      stroke="black"
      stroke-miterlimit="10"
    />
    <path
      d="M132.328 50.3675C132.171 50.3046 132.328 56.8241 128.439 59.6555"
      stroke="black"
      stroke-miterlimit="10"
    />
    <path d="M80.2617 133.923H67.8036" stroke="black" stroke-miterlimit="10" />
    <path d="M201.971 133.923H99.658" stroke="black" stroke-miterlimit="10" />
    <path
      d="M44.2255 72.7137C44.3456 75.1545 44.2581 77.601 43.9641 80.027C43.5866 82.8777 40.9512 86.5005 40.3801 89.3197C39.5646 93.3757 40.7988 97.5671 42.4928 101.333C44.5401 105.885 47.766 110.463 47.4514 115.676C47.2902 117.946 46.6147 120.15 45.4759 122.121C44.3372 124.091 42.7651 125.777 40.8786 127.05C38.2947 128.779 35.3432 129.881 32.2586 130.269C31.8278 130.319 31.3898 130.361 30.9518 130.373C30.7098 130.373 30.4678 130.346 30.2258 130.327C22.022 129.632 13.6077 123.374 13.627 114.662C13.627 109.096 17.8572 104.74 18.5711 99.3385C19.0091 96.0352 18.0411 92.6037 18.9365 89.3972C20.3885 84.2765 26.0005 81.4838 28.4592 76.7696C30.2694 73.2897 30.5646 69.2289 31.9972 65.5796C33.9913 60.4976 37.176 54.6896 41.532 54.2056C42.7961 54.3488 44.0179 54.7473 45.1233 55.3768C47.824 56.8288 48.5113 56.9208 49.0607 58.2155C49.6221 59.5683 48.7848 61.013 47.386 61.4462C45.0241 62.194 44.0053 66.9928 44.2255 72.7137Z"
      fill="#EC1A3A"
    />
    <path
      d="M46.5995 56.1633C53.6901 54.1087 58.1962 57.1313 61.4196 60.6161C64.643 64.1009 64.493 68.0576 64.493 68.0576"
      stroke="black"
      stroke-miterlimit="10"
    />
    <path
      d="M68.5925 124.32C68.4854 129.86 67.7836 135.372 66.4992 140.762"
      stroke="black"
      stroke-miterlimit="10"
    />
    <path
      d="M86.2125 169.434C83.6159 173.901 77.457 177.074 69.9211 179.048C56.5482 182.553 38.8434 182.279 29.0618 178.688C8.50631 171.154 16.4972 135.08 16.4972 135.08C16.4972 135.08 52.0494 128.388 75.7557 147.18C78.0204 148.97 80.1227 150.956 82.038 153.116C84.6589 156.08 86.2682 158.793 87.0281 161.271C87.9598 164.359 87.5871 167.079 86.2125 169.434Z"
      stroke="black"
      stroke-miterlimit="10"
    />
    <path
      d="M72.5855 178.439C72.5855 178.439 60.1297 213.013 81.0555 221.844C101.981 230.674 4.2108 231.851 25.7924 221.844C47.3739 211.837 34.969 180.551 34.969 180.551"
      stroke="black"
      stroke-miterlimit="10"
    />
    <path
      d="M97.9229 60.9429C97.6639 60.1516 97.7704 57.4 97.8551 55.8464C97.8714 55.553 98.0013 55.2775 98.2172 55.0783C98.4331 54.8791 98.7182 54.7718 99.0119 54.7792L123.873 54.997C124.292 55.0008 124.692 55.17 124.987 55.4678C125.282 55.7655 125.448 56.1677 125.448 56.5869V75.2427C125.448 75.4521 125.407 75.6594 125.326 75.8528C125.246 76.0462 125.128 76.2218 124.98 76.3695C124.831 76.5173 124.655 76.6342 124.461 76.7137C124.268 76.7932 124.06 76.8336 123.851 76.8326L99.6241 76.7431C99.2732 76.7287 98.9414 76.5791 98.6982 76.3256C98.4551 76.0721 98.3195 75.7343 98.3198 75.3831V73.9601C100.043 74.7635 103.3 75.0104 103.3 75.0104C104.459 74.9789 106.291 74.8385 107.296 74.2626C108.215 73.735 109.377 72.9776 109.534 71.8305C109.595 71.3869 109.477 70.9372 109.208 70.5799C108.938 70.2225 108.537 69.9866 108.094 69.9235C107.828 69.8704 107.552 69.8896 107.296 69.9792"
      stroke="black"
      stroke-miterlimit="10"
    />
    <path
      d="M122.186 112.641C122.174 112.974 122.062 113.296 121.864 113.563C121.295 114.263 120.17 114.125 119.405 113.909C116.189 112.995 114.258 116.479 113.043 118.827C109.974 124.761 105.372 130.273 99.629 133.923C99.2563 134.165 98.8764 134.392 98.4916 134.615C92.8796 137.853 85.6075 137.25 80.1794 133.889L87.12 116.84L87.8073 117.389C91.9987 120.698 97.1582 118.841 100.73 115.577C101.722 114.674 102.596 113.65 103.334 112.53C104.563 110.64 105.616 108.6 107.298 107.063C109.626 104.936 113.033 104.52 115.976 105.42C118.919 106.32 122.452 109.215 122.186 112.641Z"
      fill="white"
    />
    <path
      d="M122.157 111.434C122.157 111.434 121.368 107.257 114.255 110.517"
      stroke="black"
      stroke-miterlimit="10"
    />
    <path
      d="M118.2 106.42C118.2 106.42 113.767 105.001 111.298 108.389"
      stroke="black"
      stroke-miterlimit="10"
    />
    <path
      d="M28.706 130.334C29.8898 130.44 31.0814 130.42 32.261 130.276C35.3448 129.883 38.295 128.779 40.8786 127.05C42.7651 125.777 44.3372 124.091 45.4759 122.121C46.6147 120.15 47.2902 117.946 47.4514 115.676C47.766 110.461 44.5474 105.882 42.4928 101.33C40.7988 97.5624 39.5646 93.3709 40.3825 89.3199C40.9512 86.4981 43.5818 82.8778 43.9617 80.0246C44.2573 77.5988 44.3463 75.1523 44.2279 72.7114C44.0077 66.9881 45.0241 62.1844 47.386 61.4536C48.7848 61.0204 49.6245 59.5732 49.0607 58.2229C48.521 56.9257 47.8265 56.8483 45.1233 55.3794C38.0763 51.5461 33.1758 58.6923 30.4702 65.5821C29.0352 69.2339 28.7448 73.2898 26.9322 76.7697C24.4735 81.4863 18.8494 84.2717 17.4119 89.4021C16.5141 92.6062 17.4821 96.0402 17.0465 99.3387C16.335 104.738 12.1121 109.091 12.1 114.662C12.0806 123.372 20.5047 129.635 28.706 130.334Z"
      stroke="black"
      stroke-miterlimit="10"
    />
    <path
      d="M86.2125 169.434C85.6051 173.756 84.7 178.715 83.7029 183.678C80.8764 197.745 77.2803 211.898 77.2803 211.898"
      stroke="black"
      stroke-miterlimit="10"
    />
    <path
      d="M87.0183 161.271C87.0304 160.744 87.0377 160.26 87.0183 159.8C86.803 149.878 79.6688 147.506 76.6003 146.938C76.1425 146.848 75.6792 146.789 75.2136 146.761"
      stroke="black"
      stroke-miterlimit="10"
    />
    <path
      d="M78.3451 207.607C78.74 207.365 79.1923 207.233 79.6553 207.224C80.1183 207.215 80.5753 207.33 80.9792 207.557C81.3831 207.783 81.7193 208.113 81.953 208.513C82.1868 208.913 82.3097 209.368 82.309 209.831C82.309 209.865 82.309 209.906 82.309 209.954C82.2704 211.149 81.9555 212.319 81.3891 213.372C80.8227 214.425 80.0202 215.333 79.0445 216.024L75.6807 218.417"
      stroke="black"
      stroke-miterlimit="10"
    />
    <path
      d="M40.1333 92.5191C40.6028 92.3279 41.0819 92.1585 41.5659 92.0012C42.5847 90.1184 42.4274 85.9972 42.3306 84.4992L43.3495 82.2026C46.1615 83.9305 49.8834 83.2819 53.3368 82.0792C53.8217 81.9097 54.2933 81.7043 54.7477 81.4645C56.9402 80.4578 60.0136 78.0765 58.6342 76.8471C57.2548 75.6178 57.3516 73.251 58.2349 71.799C58.5035 71.3537 58.9802 70.9157 59.4763 71.0537C59.8103 71.1456 60.0257 71.4578 60.2169 71.7458C60.4589 72.1064 60.7009 72.4524 60.9429 72.8057C61.0276 72.9243 61.1655 73.0477 61.2962 72.9945C61.3515 72.958 61.3945 72.9058 61.4196 72.8445C61.8455 71.9684 61.7657 70.7124 61.8383 69.7517C61.923 68.607 61.9883 67.4551 62.0222 66.3056C62.0415 65.6716 62.1722 64.9916 62.8522 64.7689C62.9895 64.7159 63.137 64.6949 63.2836 64.7075C63.4302 64.7201 63.5719 64.7659 63.6981 64.8415C63.8244 64.9171 63.9317 65.0205 64.012 65.1438C64.0922 65.267 64.1434 65.407 64.1615 65.553C64.6564 68.3342 64.729 71.1742 64.3768 73.977C64.0429 76.9125 63.4403 80.027 61.5575 82.3938C60.4849 83.759 59.0476 84.7927 57.4121 85.3752C55.8294 85.9246 55.8802 87.8339 55.8802 89.5086V92.2891C60.7468 93.2765 65.3182 94.4671 69.0983 97.8551C71.5982 100.14 73.9503 102.582 76.1405 105.166C83.035 113.256 84.5258 114.773 87.846 117.389C92.0374 120.698 97.1993 118.841 100.769 115.577C101.758 114.673 102.632 113.65 103.368 112.53C104.597 110.64 105.65 108.6 107.329 107.063C109.66 104.936 113.067 104.52 116.01 105.42C118.953 106.32 122.491 109.215 122.21 112.641C122.198 112.974 122.087 113.295 121.891 113.563C121.322 114.263 120.197 114.125 119.432 113.909C116.213 112.995 114.284 116.479 113.067 118.827C110.001 124.761 105.396 130.273 99.6532 133.923C99.2805 134.165 98.903 134.392 98.5158 134.615C92.1003 138.318 83.4997 136.996 77.9821 132.28L64.6721 120.981"
      stroke="black"
      stroke-miterlimit="10"
    />
    <path
      d="M41.5659 92.0011C41.5659 92.0011 47.9233 90.0361 55.8802 92.2964"
      stroke="black"
      stroke-miterlimit="10"
    />
    <path
      d="M98.3198 73.9601C98.3198 73.9601 98.3682 82.1881 100.331 85.3559"
      stroke="black"
      stroke-miterlimit="10"
    />
    <path
      d="M104.769 36.3C103.259 38.8773 103.329 40.7068 103.721 43.6761C103.754 43.929 103.714 44.186 103.607 44.4173C103.499 44.6486 103.329 44.8448 103.115 44.9835C102.901 45.1221 102.652 45.1974 102.397 45.2007C102.142 45.2041 101.891 45.1353 101.674 45.0023C92.9619 39.9881 84.8089 43.9544 74.4077 41.4981C70.589 40.6003 65.8288 38.7442 62.5643 35.7555C61.4812 34.1471 60.9032 32.2519 60.9041 30.3129C60.9041 22.1841 72.0095 15.592 85.7019 15.592C94.4792 15.592 102.189 18.3 106.599 22.3801C106.599 22.3801 106.599 22.3801 106.611 22.3947C107.717 23.9851 108.321 25.871 108.343 27.8082C108.343 30.734 106.175 33.88 104.769 36.3Z"
      fill="#D7E8F0"
    />
    <path
      d="M108.305 27.8131V28.0187C108.254 30.8671 106.828 33.5146 105.137 35.8063C104.004 37.3406 102.661 39.0419 102.981 40.9222C103.121 41.7498 103.583 42.5025 103.707 43.3422C103.83 44.1819 103.38 45.2104 102.54 45.254C102.008 45.2806 101.553 44.9007 101.132 44.574C98.6319 42.638 95.3843 41.912 92.2262 41.7861C89.0681 41.6603 85.9148 42.0741 82.7543 42.1636C78.1999 42.2943 73.5728 41.7256 69.3645 39.9856C65.582 38.4078 62.1335 35.8426 59.8635 32.428C57.6347 29.0618 58.9536 24.1782 61.3301 21.2524C63.5613 18.5082 66.7896 16.7512 70.1026 15.5146C79.0106 12.1871 89.1794 12.267 97.9664 15.9091C100.575 16.9787 103.092 18.392 105.052 20.4296C106.964 22.4165 108.288 25.0639 108.305 27.8131Z"
      stroke="black"
      stroke-miterlimit="10"
    />
    <path
      d="M71.7482 31.051C73.638 31.051 75.1701 29.519 75.1701 27.6292C75.1701 25.7393 73.638 24.2073 71.7482 24.2073C69.8583 24.2073 68.3263 25.7393 68.3263 27.6292C68.3263 29.519 69.8583 31.051 71.7482 31.051Z"
      fill="white"
    />
    <path
      d="M82.8124 31.051C84.7022 31.051 86.2343 29.519 86.2343 27.6292C86.2343 25.7393 84.7022 24.2073 82.8124 24.2073C80.9225 24.2073 79.3905 25.7393 79.3905 27.6292C79.3905 29.519 80.9225 31.051 82.8124 31.051Z"
      fill="white"
    />
    <path
      d="M94.092 31.051C95.9819 31.051 97.5139 29.519 97.5139 27.6292C97.5139 25.7393 95.9819 24.2073 94.092 24.2073C92.2022 24.2073 90.6702 25.7393 90.6702 27.6292C90.6702 29.519 92.2022 31.051 94.092 31.051Z"
      fill="white"
    />
    <g opacity="0.54">
      <path
        opacity="0.54"
        d="M159.846 171.094L158.454 191.18C157.818 192.393 157.023 193.515 156.09 194.517C155.988 194.481 155.887 194.442 155.787 194.396C155.601 194.333 155.417 194.258 155.243 194.186C152.424 192.949 150.282 190.645 149.658 188.034C149.094 185.747 149.602 183.276 148.513 181.127C147.184 178.48 143.571 176.82 143.128 173.833C142.712 171.038 145.229 168.476 144.822 165.736C144.338 162.639 140.551 160.802 139.842 157.777C139.399 155.896 139.796 153.738 139.629 151.802C139.445 149.636 139.082 147.489 138.543 145.384C144.15 144.977 149.856 148.068 151.673 152.494C153.157 156.124 152.264 160.352 154.577 163.652C155.841 165.441 157.944 166.779 159.033 168.65C159.369 169.234 159.613 169.865 159.759 170.523C159.759 170.569 159.759 170.615 159.776 170.651C159.776 170.726 159.795 170.779 159.805 170.835C159.829 171.002 159.846 171.094 159.846 171.094Z"
        fill="#EC1A3A"
      />
      <path
        opacity="0.54"
        d="M159.855 171.077C159.855 171.077 159.839 170.995 159.819 170.835C159.836 170.899 159.848 170.963 159.855 171.028C159.859 171.036 159.861 171.044 159.861 171.053C159.861 171.061 159.859 171.069 159.855 171.077Z"
        fill="#EC1A3A"
      />
    </g>
    <path
      d="M178.381 163.239C177.655 165.847 173.679 167.433 173.199 170.107C172.776 172.478 175.394 174.69 174.961 177.098C174.499 179.68 170.736 181.108 169.354 183.39C168.229 185.244 168.754 187.376 168.173 189.348C167.5 191.589 165.269 193.59 162.326 194.65C162.142 194.716 161.968 194.779 161.782 194.834C161.68 194.863 161.569 194.9 161.467 194.926C160.499 194.125 159.374 192.714 158.462 191.192L159.846 171.094C160.925 170.179 162.159 169.342 163.018 168.326C163.95 167.229 164.383 166.031 164.659 164.775H164.688V164.637C165.092 162.656 165.129 160.579 166.06 158.699C167.95 154.873 173.882 152.206 179.719 152.557C179.168 154.364 178.791 156.22 178.594 158.099C178.427 159.761 178.838 161.625 178.381 163.239Z"
      fill="#EC1A3A"
    />
    <path d="M164.698 164.62V164.758H164.669L164.698 164.62Z" fill="#EC1A3A" />
    <path
      d="M164.698 164.621L164.669 164.758C164.393 166.014 163.96 167.212 163.028 168.309C162.169 169.325 160.935 170.162 159.856 171.077C159.86 171.065 159.86 171.051 159.856 171.038C159.848 170.973 159.836 170.908 159.819 170.845C159.819 170.789 159.8 170.736 159.79 170.661C159.79 170.625 159.79 170.579 159.773 170.533C159.628 169.875 159.383 169.243 159.047 168.66C157.958 166.789 155.855 165.451 154.592 163.662C154.592 163.662 155.163 154.236 159.986 151.369C164.56 148.658 164.698 163.052 164.698 164.621Z"
      fill="#EC1A3A"
    />
    <path d="M164.698 164.62V164.758H164.669L164.698 164.62Z" fill="#EC1A3A" />
    <path
      d="M159.846 171.038V171.094C159.846 171.094 159.829 171.012 159.81 170.852C159.826 170.913 159.838 170.976 159.846 171.038Z"
      fill="#EC1A3A"
    />
    <path
      d="M159.415 171.094C160.49 170.179 161.738 169.33 162.6 168.316C165.02 165.463 164.086 161.816 165.637 158.687C167.525 154.865 173.461 152.201 179.295 152.55C178.741 154.356 178.364 156.212 178.168 158.091C177.993 159.766 178.41 161.627 177.952 163.248C177.209 165.857 173.248 167.44 172.766 170.114C172.338 172.483 174.964 174.695 174.53 177.1C174.068 179.685 170.308 181.113 168.923 183.392C167.793 185.249 168.323 187.376 167.737 189.353C167.028 191.737 164.56 193.842 161.344 194.837C161.242 194.87 161.131 194.907 161.027 194.933C160.059 194.132 158.933 192.722 158.019 191.197"
      stroke="black"
      stroke-miterlimit="10"
    />
    <path
      d="M175.733 155.543C167.033 164.906 162.941 184.646 161.349 194.839C161.218 195.698 161.107 196.485 161 197.194"
      stroke="black"
      stroke-miterlimit="10"
    />
    <path
      d="M176.537 202.934L172.546 226.551C172.451 227.198 172.13 227.79 171.64 228.223C171.15 228.656 170.523 228.901 169.869 228.915H148.941C148.281 228.9 147.648 228.65 147.157 228.209C146.665 227.768 146.347 227.166 146.26 226.512L142.569 202.932L176.537 202.934Z"
      stroke="black"
      stroke-miterlimit="10"
    />
    <path
      d="M180.338 200.296C180.303 200.997 180.003 201.658 179.501 202.147C178.998 202.636 178.329 202.917 177.628 202.934H141.543C140.85 202.917 140.188 202.642 139.687 202.162C139.187 201.682 138.884 201.032 138.838 200.34V200.34C138.685 198.646 139.939 197.194 141.543 197.194H177.628C179.218 197.196 180.467 198.626 180.338 200.296Z"
      stroke="black"
      stroke-miterlimit="10"
    />
    <path
      d="M155.662 194.512C157.21 192.976 159.108 189.549 159.947 186.751C160.64 184.445 159.422 182.071 159.142 179.704C158.706 175.999 160.545 172.016 158.607 168.657C157.525 166.784 155.422 165.453 154.159 163.66C151.833 160.356 152.726 156.131 151.24 152.508C149.423 148.077 143.719 144.987 138.114 145.398C138.65 147.505 139.013 149.651 139.201 151.816C139.368 153.752 138.959 155.911 139.409 157.789C140.118 160.814 143.922 162.646 144.389 165.746C144.801 168.485 142.281 171.05 142.695 173.841C143.141 176.832 146.749 178.485 148.082 181.137C149.166 183.288 148.658 185.757 149.22 188.041C149.924 190.897 152.419 193.406 155.662 194.512Z"
      stroke="black"
      stroke-miterlimit="10"
    />
    <path
      d="M141.536 148.869C149.888 159.72 153.818 182.587 155.364 194.391C155.495 195.415 155.606 196.354 155.705 197.194"
      stroke="black"
      stroke-miterlimit="10"
    />
    <path
      d="M154.154 163.66C154.154 163.66 154.728 154.234 159.548 151.369C164.369 148.503 164.267 164.56 164.267 164.56"
      stroke="black"
      stroke-miterlimit="10"
    />
    <path
      d="M159.415 171.094C159.415 171.094 158.43 165.702 160.158 160.4"
      stroke="black"
      stroke-miterlimit="10"
    />
  </svg>