 <svg
    width="377"
    height="77"
    viewBox="0 0 377 77"
    fill="none"
    xmlns="http://www.w3.org/2000/svg"
  >
    <path
      d="M376 38.1772C358.226 39.8012 342.988 64.227 324.787 56.7945C309.786 50.6479 296.832 31.2879 281.878 24.9306C266.588 18.4459 249.447 29.7858 234.569 36.9911C220.412 43.8472 206.205 52.5822 191.783 56.4952C179.22 59.9039 168.323 48.2313 156.133 45.1996C148.58 43.3207 142.15 46.7903 135.298 53.3304C127.11 61.0537 118.524 66.6997 109.716 70.152C93.6217 76.5979 76.0896 78.0334 59.8753 72.8567C39.968 66.505 20.6207 53.6187 0.999991 44.3405"
      stroke="url(#waveSmall0_linear)"
      stroke-miterlimit="10"
    />
    <path
      d="M376 35.3287C358.097 37.0277 342.816 61.5855 324.471 54.3815C309.474 48.4847 296.406 29.6802 281.436 23.7448C266.173 17.677 249.176 28.8362 234.302 35.8086C220.24 42.428 206.066 50.5864 191.704 53.6919C179.166 56.4059 167.898 45.6935 155.614 43.5643C148.008 42.2459 141.552 46.0024 134.636 52.4232C126.512 59.8808 117.979 65.1512 109.236 68.1111C72.5183 80.9582 36.5378 59.2853 1.00002 42.1853"
      stroke="url(#waveSmall1_linear)"
      stroke-miterlimit="10"
    />
    <path
      d="M376 32.4948C357.964 34.2761 342.638 58.8901 324.141 51.957C309.143 46.3337 295.964 28.1157 280.974 22.5637C265.737 16.9186 248.883 27.8691 234.039 34.594C220.057 40.9461 205.924 48.526 191.628 50.8115C179.091 52.8339 167.469 43.1384 155.094 41.8779C147.443 41.1106 140.932 45.1663 133.977 51.4527C125.945 58.7586 117.417 63.4172 108.758 65.9931C72.974 76.6422 35.6511 56.8732 1.00001 39.998"
      stroke="url(#waveSmall2_linear)"
      stroke-miterlimit="10"
    />
    <path
      d="M376 29.7275C357.831 31.6049 362.449 104 323.81 49.7587C308.81 44.3406 295.521 26.582 280.513 21.3944C265.302 16.1409 248.594 26.9608 233.766 33.4713C219.859 39.5921 205.776 46.6462 191.544 48.1887C178.984 49.5501 167.034 40.7559 154.565 40.3881C146.87 40.1631 140.318 44.5437 133.307 50.7633C125.328 57.8393 116.857 62.1046 108.271 64.2236C91.9141 68.2584 75.3281 64.822 59.1068 59.8869C39.6432 53.9637 20.151 47.4641 0.999987 37.9288"
      stroke="url(#waveSmall3_linear)"
      stroke-miterlimit="10"
    />
    <path
      d="M376 26.8363C357.855 28.7588 342.503 53.4738 323.873 47.3849C308.934 42.4833 295.619 25.551 280.729 20.4152C265.677 15.225 249.305 25.5238 234.607 31.7434C220.399 37.7342 206.006 44.4276 191.462 45.2663C178.551 46.0125 165.971 37.7669 153.088 38.7309C145.312 39.3136 138.83 44.6291 131.703 50.5328C124.3 56.6653 116.482 60.1781 108.576 61.8392C91.7481 65.3738 75.0584 60.1618 58.4311 55.2438C39.2388 49.5689 19.8746 45.201 1 35.7137"
      stroke="url(#waveSmall4_linear)"
      stroke-miterlimit="10"
    />
    <path
      d="M376 24.1083C357.729 26.1386 342.315 51.2495 323.547 45.3504C308.604 40.6531 295.182 24.0424 280.268 19.2463C265.247 14.4393 249.005 24.668 234.328 30.7317C220.188 36.5814 205.849 42.8042 191.38 42.8042C178.393 42.8042 165.534 35.5991 152.544 37.4374C144.758 38.5349 138.221 44.198 131.039 50.0203C123.685 55.9797 115.919 59.146 108.081 60.3971C91.1979 63.0915 74.7969 56.1608 58.1719 51.3427C39.1042 45.8168 19.7422 43.4627 1.00001 33.7827"
      stroke="url(#waveSmall5_linear)"
      stroke-miterlimit="10"
    />
    <path
      d="M376 21.3834C357.591 23.5126 342.145 48.8918 323.217 43.2086C308.268 38.7192 294.742 22.5333 279.807 18.0989C264.816 13.6371 248.701 23.8207 234.032 29.702C219.969 35.3522 205.684 41.0299 191.29 40.2267C178.209 39.4949 165.097 33.3551 151.997 36.0564C144.2 37.6684 137.612 43.6487 130.382 49.3594C123.09 55.1197 115.361 57.92 107.595 58.7508C90.6672 60.5718 74.5364 51.9727 57.9161 47.2743C38.9675 41.9157 19.6335 41.6186 1.00001 31.7926"
      stroke="url(#waveSmall6_linear)"
      stroke-miterlimit="10"
    />
    <path
      d="M376 19.6389C357.463 21.8367 341.952 47.3962 322.892 41.9569C307.941 37.6878 294.311 21.963 279.352 17.9302C264.393 13.8974 264.464 -20.5 233.778 29.6001C219.749 35.0395 205.533 40.1767 191.218 38.5669C178.022 37.0834 164.686 32.0506 151.477 35.5944C143.664 37.6878 137.029 43.9843 129.732 49.5555C122.435 55.1267 114.804 57.5222 107.112 57.9398C90.1841 58.8683 74.2671 48.6709 57.6652 44.1106C38.8263 38.935 19.5082 40.6932 0.999987 30.7375"
      stroke="url(#waveSmall7_linear)"
      stroke-miterlimit="10"
    />
    <path
      d="M376 16.9537C357.335 19.2479 341.77 44.8126 322.574 39.656C307.615 35.6192 293.886 20.4606 278.906 16.7898C263.989 13.1354 248.103 23.0444 233.499 28.4906C219.511 33.7018 205.373 38.274 191.128 35.8868C177.802 33.6527 164.268 29.736 150.942 34.0842C143.152 36.6297 136.439 43.2175 129.09 48.6309C121.876 53.9405 114.245 55.9835 106.636 55.9999C89.7082 56.0436 73.9942 44.3538 57.4156 39.94C38.6651 34.9473 19.3938 38.7328 1.00001 28.6763"
      stroke="url(#waveSmall8_linear)"
      stroke-miterlimit="10"
    />
    <path
      d="M376 15C357.211 17.3687 341.598 43.1236 322.265 38.168C307.299 34.3476 293.47 19.6118 278.473 16.3371C263.571 13.0625 247.845 22.8864 233.238 28.1367C219.279 33.136 205.211 37.1911 191.05 34.0311C177.581 31.0293 163.872 28.2022 150.424 33.3543C142.637 36.3288 135.866 43.2437 128.463 48.5268C121.283 53.6461 113.718 55.3216 106.179 54.9505C89.2773 54.1264 73.7276 40.9515 57.1726 36.6453C38.5291 31.7989 19.3075 37.6168 0.999992 27.3672"
      stroke="url(#waveSmall9_linear)"
      stroke-miterlimit="10"
    />
    <path
      d="M376 13C357.094 15.4466 341.428 41.3353 321.968 36.6055C306.994 32.96 293.062 18.7216 278.057 15.7627C263.188 12.8311 247.589 22.6231 232.991 27.669C219.059 32.4696 205.062 36.0115 190.982 32.0991C177.362 28.3174 163.485 26.5628 149.944 32.4969C142.165 35.9025 135.337 43.1335 127.869 48.2992C120.734 53.2034 113.208 54.5548 105.734 53.8083C88.8778 52.1354 73.4615 37.5536 56.9359 33.3469C38.3818 28.6226 19.2182 36.4475 1.00001 26.0124"
      stroke="url(#waveSmall10_linear)"
      stroke-miterlimit="10"
    />
    <path
      d="M376 11C356.99 13.5769 341.266 40.2085 321.68 35.5723C306.698 32.0214 292.688 17.9181 277.649 15.2299C262.805 12.5806 247.321 22.5654 232.746 27.5411C218.832 32.2997 204.905 35.3719 190.908 30.6189C177.129 25.9437 163.126 25.2202 149.468 32.066C141.705 35.9619 134.812 43.6815 127.293 48.8352C120.194 53.6996 112.71 54.707 105.314 53.5827C88.5176 51.0281 73.2078 34.7597 56.7132 30.5187C38.2237 25.7823 19.1379 35.8228 1.00001 24.9085"
      stroke="url(#waveSmall11_linear)"
      stroke-miterlimit="10"
    />
    <path
      d="M376 9C356.87 11.6297 341.104 38.3537 321.409 33.9154C306.414 30.5423 292.318 16.9001 277.263 14.5479C262.443 12.2344 247.078 22.1872 232.516 26.9917C218.615 31.5798 204.755 34.1318 190.836 28.656C176.917 23.1803 162.776 23.5021 149.01 31.0804C141.266 35.3467 134.305 43.2857 126.745 48.4008C119.714 53.1664 112.219 53.7656 104.914 52.2843C88.1849 48.9556 72.9609 31.43 56.5 27.258C38.0912 22.5922 19.0599 34.6255 1.00001 23.4521"
      stroke="url(#waveSmall12_linear)"
      stroke-miterlimit="10"
    />
    <path
      d="M376 8C356.765 10.6751 340.965 37.4763 321.152 33.2259C306.162 30.0257 291.981 16.8435 276.908 14.8039C262.121 12.8031 246.855 22.752 232.308 27.4003C218.414 31.822 204.619 33.8837 190.78 27.7098C176.681 21.4255 162.456 22.7354 148.591 31.0261C140.862 35.6358 133.841 43.8436 126.236 48.8678C119.233 53.494 111.777 53.7593 104.548 51.9851C96.6596 50.0451 88.9692 45.6012 81.396 40.671C73.2239 35.3594 64.8147 27.2566 56.3014 25.1121C37.9544 20.4858 18.9876 34.464 1 23.0007"
      stroke="url(#waveSmall13_linear)"
      stroke-miterlimit="10"
    />
    <path
      d="M376 6C356.671 8.71475 340.843 35.6415 320.915 31.5418C305.912 28.4519 291.657 15.6561 276.565 13.9235C261.802 12.2075 246.645 22.2002 232.111 26.7248C218.217 31.0397 204.477 32.6123 190.719 25.7537C176.466 18.6468 162.148 20.9035 148.181 29.8975C140.486 34.8635 133.405 43.3057 125.761 48.2497C118.787 52.7577 111.365 52.7246 104.206 50.6499C96.3334 48.3766 88.6873 43.554 81.1584 38.3176C69.6675 -8 64.6241 24.1701 56.1135 22.0126C37.8239 17.3832 18.9172 33.2965 0.999987 21.4608"
      stroke="url(#waveSmall14_linear)"
      stroke-miterlimit="10"
    />
    <path
      d="M376 5C356.583 7.75587 340.713 34.813 320.7 30.8391C305.687 27.8517 291.364 15.4558 276.26 13.9731C261.517 12.5235 246.463 22.621 231.939 27.0249C218.043 31.2304 204.353 32.3603 190.676 24.8202C176.259 16.8999 161.876 20.0415 147.811 29.7147C140.144 34.9839 133.011 43.6759 125.329 48.5593C118.384 52.9687 111.006 52.6601 103.899 50.3176C96.0449 47.727 88.4381 42.546 80.9485 37.0287C72.8911 31.0926 64.4588 22.2187 55.9483 20.0305C37.719 15.3455 18.8569 33.176 1 20.9289"
      stroke="url(#waveSmall15_linear)"
      stroke-miterlimit="10"
    />
    <path
      d="M376 4C356.502 6.7577 340.607 34.0203 320.507 30.1375C305.476 27.2309 291.08 15.1687 275.96 13.9277C261.234 12.7143 246.273 22.9675 231.765 27.286C217.863 31.4171 204.212 32.1285 190.619 23.9382C176.053 15.1632 161.634 19.1343 147.47 29.4536C139.829 35.0296 132.649 43.9536 124.936 48.7961C118.014 53.1367 110.662 52.5852 103.623 49.9929C95.7793 47.1029 88.2142 41.5875 80.7584 35.8018C72.7453 29.5749 64.3077 20.3918 55.7868 18.1525C37.594 13.3652 18.7788 33.0993 1 20.3587"
      stroke="url(#waveSmall16_linear)"
      stroke-miterlimit="10"
    />
    <path
      d="M376 3C356.427 5.76399 340.516 33.2601 320.339 29.4292C305.305 26.5768 290.844 14.8078 275.711 13.7574C261 12.7569 246.138 23.2158 231.63 27.4834C217.721 31.5741 204.096 31.9058 190.581 23.061C175.865 13.4258 161.438 18.1577 147.169 29.1418C139.563 35.0015 132.341 44.1502 124.599 48.9706C117.698 53.2714 110.383 52.5085 103.393 49.6893C95.5599 46.5218 88.0287 40.6953 80.6042 34.6532C72.6276 28.1578 64.1979 18.716 55.6537 16.4109C37.5 11.4633 18.7083 33.1054 1.00001 19.7719"
      stroke="url(#waveSmall17_linear)"
      stroke-miterlimit="10"
    />
    <path
      d="M376 2C356.523 4.77216 340.664 32.3496 320.604 28.7735C304.752 25.9514 289.429 13.2051 273.434 13.4656C259.76 13.6874 246.038 23.2514 232.53 27.3652C218.179 31.7342 204.442 31.6122 190.543 22.2589C175.131 11.9132 160.691 17.3522 145.837 29.655C139.178 35.1661 132.834 42.6842 126.126 47.8459C119.027 53.3071 111.233 52.7748 103.928 49.7421C95.6387 46.3046 87.7037 39.7623 79.886 33.1092C72.0057 26.3784 63.628 16.9031 55.1306 14.6854C37.1617 10.0226 18.4741 33.0426 1 19.1597"
      stroke="url(#waveSmall18_linear)"
      stroke-miterlimit="10"
    />
    <path
      d="M376 2C356.469 4.6986 340.609 32.1061 320.495 28.57C304.638 25.7783 289.245 13.4896 273.255 13.9001C259.591 14.2559 245.94 23.961 232.44 28.0281C218.078 32.3524 204.344 31.9254 190.513 22.089C174.945 11.0099 160.581 17.0092 145.604 29.7523C138.977 35.3904 132.615 42.8786 125.888 47.9802C118.805 53.3774 111.044 52.7424 103.781 49.5785C95.4974 45.9713 87.5938 39.233 79.7995 32.4892C71.9297 25.6798 63.5547 16.221 55.0365 13.922C37.1016 9.11598 18.3932 33.5457 1.00001 19.1769"
      stroke="url(#waveSmall19_linear)"
      stroke-miterlimit="10"
    />
    <path
      d="M376 1C356.43 3.67837 340.583 31.4948 320.411 27.8721C304.552 25.0225 289.125 12.8898 273.115 13.4365C259.456 13.9004 245.87 24.0064 232.375 28.1427C218.005 32.5606 204.25 31.8592 190.508 21.339C174.789 9.31123 160.539 15.8719 145.435 29.2692C138.823 35.1285 132.445 42.7605 125.714 47.9681C118.635 53.4408 110.943 52.7505 103.685 49.4095C86.9167 41.6781 71.8932 17.4734 54.9635 12.5915C37.0599 7.42809 18.3021 33.7369 1.00001 18.5116"
      stroke="url(#waveSmall20_linear)"
      stroke-miterlimit="10"
    />
    <path
      d="M376 1C356.398 3.60578 340.556 31.4026 320.36 27.7161C304.498 24.8141 289.018 12.9976 273.015 13.6284C259.354 14.177 245.827 24.5672 232.337 28.7474C217.962 33.2019 204.159 32.3023 190.495 21.2867C174.638 8.49916 160.546 15.3949 145.298 29.2412C138.741 35.1823 132.347 43.0545 125.6 48.0247C118.433 53.2966 110.972 52.8687 103.636 49.4016C86.8383 41.4581 71.8978 17.3917 54.9078 12.1911C37.0271 6.70528 18.188 34.4363 1.00001 18.5108"
      stroke="url(#waveSmall21_linear)"
      stroke-miterlimit="10"
    />
    <path
      d="M376 1C356.378 3.54284 340.566 31.6575 320.351 27.8129C304.489 24.7957 288.989 13.113 272.956 13.7969C259.292 14.3816 245.819 25.27 232.332 29.5724C217.958 34.1562 204.083 33.1026 190.5 21.4696C174.521 7.77355 160.628 14.9553 145.236 29.407C131.173 42.601 119.588 57.6209 103.664 49.8876C86.8231 41.7075 71.9538 17.7132 54.9048 12.0649C37.0459 6.14635 18.1089 35.5352 1.00002 18.684"
      stroke="url(#waveSmall22_linear)"
      stroke-miterlimit="10"
    />
    <defs>
      <linearGradient
        id="waveSmall0_linear"
        x1="-269976"
        y1="5411.51"
        x2="-269976"
        y2="1477.85"
        gradientUnits="userSpaceOnUse"
      >
        <stop stop-color="#943140" />
        <stop offset="1" stop-color="#EC1A3A" />
      </linearGradient>
      <linearGradient
        id="waveSmall1_linear"
        x1="-269976"
        y1="5105.5"
        x2="-269976"
        y2="1394.5"
        gradientUnits="userSpaceOnUse"
      >
        <stop stop-color="#943140" />
        <stop offset="1" stop-color="#EC1A3A" />
      </linearGradient>
      <linearGradient
        id="waveSmall2_linear"
        x1="-269976"
        y1="4901.16"
        x2="-269976"
        y2="1338.6"
        gradientUnits="userSpaceOnUse"
      >
        <stop stop-color="#943140" />
        <stop offset="1" stop-color="#EC1A3A" />
      </linearGradient>
      <linearGradient
        id="waveSmall3_linear"
        x1="-269976"
        y1="4696.82"
        x2="-269976"
        y2="1282.7"
        gradientUnits="userSpaceOnUse"
      >
        <stop stop-color="#943140" />
        <stop offset="1" stop-color="#EC1A3A" />
      </linearGradient>
      <linearGradient
        id="waveSmall4_linear"
        x1="-269976"
        y1="4492.48"
        x2="-269976"
        y2="1226.8"
        gradientUnits="userSpaceOnUse"
      >
        <stop stop-color="#943140" />
        <stop offset="1" stop-color="#EC1A3A" />
      </linearGradient>
      <linearGradient
        id="waveSmall5_linear"
        x1="-269976"
        y1="4389.81"
        x2="-269976"
        y2="1198.35"
        gradientUnits="userSpaceOnUse"
      >
        <stop stop-color="#943140" />
        <stop offset="1" stop-color="#EC1A3A" />
      </linearGradient>
      <linearGradient
        id="waveSmall6_linear"
        x1="-269976"
        y1="4287.14"
        x2="-269976"
        y2="1169.9"
        gradientUnits="userSpaceOnUse"
      >
        <stop stop-color="#943140" />
        <stop offset="1" stop-color="#EC1A3A" />
      </linearGradient>
      <linearGradient
        id="waveSmall7_linear"
        x1="-269976"
        y1="4185.47"
        x2="-269976"
        y2="1142.45"
        gradientUnits="userSpaceOnUse"
      >
        <stop stop-color="#943140" />
        <stop offset="1" stop-color="#EC1A3A" />
      </linearGradient>
      <linearGradient
        id="waveSmall8_linear"
        x1="-269976"
        y1="4082.8"
        x2="-269976"
        y2="1114"
        gradientUnits="userSpaceOnUse"
      >
        <stop stop-color="#943140" />
        <stop offset="1" stop-color="#EC1A3A" />
      </linearGradient>
      <linearGradient
        id="waveSmall9_linear"
        x1="-269976"
        y1="4081.8"
        x2="-269976"
        y2="1113"
        gradientUnits="userSpaceOnUse"
      >
        <stop stop-color="#943140" />
        <stop offset="1" stop-color="#EC1A3A" />
      </linearGradient>
      <linearGradient
        id="waveSmall10_linear"
        x1="-269976"
        y1="4181.47"
        x2="-269976"
        y2="1138.45"
        gradientUnits="userSpaceOnUse"
      >
        <stop stop-color="#943140" />
        <stop offset="1" stop-color="#EC1A3A" />
      </linearGradient>
      <linearGradient
        id="waveSmall11_linear"
        x1="-269976"
        y1="4382.81"
        x2="-269976"
        y2="1191.35"
        gradientUnits="userSpaceOnUse"
      >
        <stop stop-color="#943140" />
        <stop offset="1" stop-color="#EC1A3A" />
      </linearGradient>
      <linearGradient
        id="waveSmall12_linear"
        x1="-269976"
        y1="4482.48"
        x2="-269976"
        y2="1216.8"
        gradientUnits="userSpaceOnUse"
      >
        <stop stop-color="#943140" />
        <stop offset="1" stop-color="#EC1A3A" />
      </linearGradient>
      <linearGradient
        id="waveSmall13_linear"
        x1="-269976"
        y1="4583.15"
        x2="-269976"
        y2="1243.25"
        gradientUnits="userSpaceOnUse"
      >
        <stop stop-color="#943140" />
        <stop offset="1" stop-color="#EC1A3A" />
      </linearGradient>
      <linearGradient
        id="waveSmall14_linear"
        x1="-269976"
        y1="4682.82"
        x2="-269976"
        y2="1268.7"
        gradientUnits="userSpaceOnUse"
      >
        <stop stop-color="#943140" />
        <stop offset="1" stop-color="#EC1A3A" />
      </linearGradient>
      <linearGradient
        id="waveSmall15_linear"
        x1="-269976"
        y1="4783.49"
        x2="-269976"
        y2="1295.15"
        gradientUnits="userSpaceOnUse"
      >
        <stop stop-color="#943140" />
        <stop offset="1" stop-color="#EC1A3A" />
      </linearGradient>
      <linearGradient
        id="waveSmall16_linear"
        x1="-269976"
        y1="4884.16"
        x2="-269976"
        y2="1321.6"
        gradientUnits="userSpaceOnUse"
      >
        <stop stop-color="#943140" />
        <stop offset="1" stop-color="#EC1A3A" />
      </linearGradient>
      <linearGradient
        id="waveSmall17_linear"
        x1="-269976"
        y1="4984.83"
        x2="-269976"
        y2="1348.05"
        gradientUnits="userSpaceOnUse"
      >
        <stop stop-color="#943140" />
        <stop offset="1" stop-color="#EC1A3A" />
      </linearGradient>
      <linearGradient
        id="waveSmall18_linear"
        x1="-269976"
        y1="5085.5"
        x2="-269976"
        y2="1374.5"
        gradientUnits="userSpaceOnUse"
      >
        <stop stop-color="#943140" />
        <stop offset="1" stop-color="#EC1A3A" />
      </linearGradient>
      <linearGradient
        id="waveSmall19_linear"
        x1="-269976"
        y1="5085.5"
        x2="-269976"
        y2="1374.5"
        gradientUnits="userSpaceOnUse"
      >
        <stop stop-color="#943140" />
        <stop offset="1" stop-color="#EC1A3A" />
      </linearGradient>
      <linearGradient
        id="waveSmall20_linear"
        x1="-269976"
        y1="5186.17"
        x2="-269976"
        y2="1400.95"
        gradientUnits="userSpaceOnUse"
      >
        <stop stop-color="#943140" />
        <stop offset="1" stop-color="#EC1A3A" />
      </linearGradient>
      <linearGradient
        id="waveSmall21_linear"
        x1="-269976"
        y1="5186.17"
        x2="-269976"
        y2="1400.95"
        gradientUnits="userSpaceOnUse"
      >
        <stop stop-color="#943140" />
        <stop offset="1" stop-color="#EC1A3A" />
      </linearGradient>
      <linearGradient
        id="waveSmall22_linear"
        x1="-269976"
        y1="5186.17"
        x2="-269976"
        y2="1400.95"
        gradientUnits="userSpaceOnUse"
      >
        <stop stop-color="#943140" />
        <stop offset="1" stop-color="#EC1A3A" />
      </linearGradient>
    </defs>
  </svg>