<svg width="1140" height="512" viewBox="0 0 1140 512" fill="none" xmlns="http://www.w3.org/2000/svg">
<path d="M255.53 216C253.593 216.009 251.673 215.63 249.882 214.885C248.09 214.141 246.462 213.046 245.092 211.662L209.306 175.518C206.549 172.728 205 168.947 205 165.006C205 161.064 206.549 157.283 209.306 154.494L245.092 118.349C247.854 115.564 251.597 114 255.5 114C259.403 114 263.146 115.564 265.908 118.349L301.694 154.494C304.451 157.283 306 161.064 306 165.006C306 168.947 304.451 172.728 301.694 175.518L265.908 211.662C264.545 213.038 262.927 214.13 261.146 214.874C259.365 215.618 257.457 216.001 255.53 216V216ZM255.53 126.18C254.789 126.188 254.082 126.491 253.562 127.024L217.775 163.168C217.258 163.698 216.968 164.412 216.968 165.156C216.968 165.9 217.258 166.614 217.775 167.144L253.562 203.289C254.086 203.811 254.793 204.104 255.53 204.104C256.266 204.104 256.974 203.811 257.498 203.289L293.285 167.144C293.802 166.614 294.092 165.9 294.092 165.156C294.092 164.412 293.802 163.698 293.285 163.168L257.498 127.024C256.978 126.491 256.27 126.188 255.53 126.18V126.18Z" fill="#EC1A3A"/>
<path d="M244 183C242.409 183 240.883 182.368 239.757 181.243C238.632 180.117 238 178.591 238 177V159C238 157.409 238.632 155.883 239.757 154.757C240.883 153.632 242.409 153 244 153C245.591 153 247.117 153.632 248.243 154.757C249.368 155.883 250 157.409 250 159V177C250 178.591 249.368 180.117 248.243 181.243C247.117 182.368 245.591 183 244 183Z" fill="#EC1A3A"/>
<path d="M268 183C266.409 183 264.883 182.368 263.757 181.243C262.632 180.117 262 178.591 262 177V159C262 157.409 262.632 155.883 263.757 154.757C264.883 153.632 266.409 153 268 153C269.591 153 271.117 153.632 272.243 154.757C273.368 155.883 274 157.409 274 159V177C274 178.591 273.368 180.117 272.243 181.243C271.117 182.368 269.591 183 268 183Z" fill="#EC1A3A"/>
<path d="M349 446H295V404H349V446ZM307 434H337V416H307V434Z" fill="#EC1A3A"/>
<path d="M300.58 39.1802C299.199 28.3551 293.909 18.404 285.703 11.1915C277.496 3.97902 266.936 0 256 0C245.064 0 234.504 3.97902 226.297 11.1915C218.091 18.404 212.801 28.3551 211.42 39.1802C180.571 40.6132 151.463 53.8592 130.152 76.1626C108.841 98.466 96.9667 128.11 97.0001 158.927V466.796C97.0159 478.78 101.794 490.268 110.286 498.742C118.778 507.216 130.291 511.984 142.3 512H369.7C381.709 511.984 393.222 507.216 401.714 498.742C410.206 490.268 414.984 478.78 415 466.796V158.448C414.91 127.714 402.981 98.1904 381.683 75.9893C360.384 53.7882 331.346 40.6092 300.58 39.1802V39.1802ZM256 12.0576C263.703 12.0692 271.159 14.7693 277.076 19.6901C282.994 24.6109 287 31.4422 288.4 39.0006H223.6C225.001 31.4422 229.007 24.6109 234.924 19.6901C240.841 14.7693 248.297 12.0692 256 12.0576ZM131.5 498.289C124.864 496.098 119.089 491.876 114.996 486.222C110.903 480.568 108.7 473.771 108.7 466.796V424.884H131.5V498.289ZM161.5 335.374V351.839H173.5V335.374H361V458.114H151V335.374H161.5ZM151 323.399V296.456H361V323.399H151ZM155.8 470.089V500.025H143.5V470.089H155.8ZM167.2 470.089H179.5V500.025H167.5L167.2 470.089ZM191.2 470.089H203.5V500.025H191.5L191.2 470.089ZM215.2 470.089H227.5V500.025H215.5L215.2 470.089ZM239.2 470.089H251.5V500.025H239.5L239.2 470.089ZM263.2 470.089H275.5V500.025H263.5L263.2 470.089ZM287.2 470.089H299.5V500.025H287.5L287.2 470.089ZM311.2 470.089H323.5V500.025H311.5L311.2 470.089ZM335.2 470.089H347.5V500.025H335.5L335.2 470.089ZM359.2 500.025V470.089H371.5V500.025C370.801 500.085 370.099 500.085 369.4 500.025H359.2ZM403 466.796C403.022 473.191 401.194 479.458 397.735 484.842C394.276 490.227 389.333 494.501 383.5 497.151V425.303H403.3L403 466.796ZM403 412.91H373V284.481H139V413.209H109V158.867C109 130.284 120.379 102.872 140.633 82.6607C160.886 62.4495 188.357 51.095 217 51.095H295.3C323.943 51.095 351.414 62.4495 371.668 82.6607C391.921 102.872 403.3 130.284 403.3 158.867L403 412.91Z" fill="#EC1A3A"/>
<ellipse cx="850.046" cy="363.214" rx="76.0456" ry="76.2141" fill="#EC1A3A"/>
<path d="M887.826 331.464L865.607 319.586C862.425 317.886 858.779 317.539 855.34 318.611C851.901 319.683 849.08 322.045 847.398 325.262C845.716 328.479 845.373 332.166 846.434 335.643C847.494 339.121 849.83 341.972 853.012 343.673L875.231 355.552C875.481 355.685 875.734 355.81 875.989 355.927C877.771 356.741 879.649 357.13 881.506 357.129C886.04 357.129 890.44 354.811 892.961 350.718C893.129 350.445 893.289 350.164 893.44 349.876C896.912 343.235 894.394 334.976 887.826 331.464V331.464ZM854.245 341.314C851.687 339.947 849.808 337.654 848.955 334.857C848.103 332.061 848.378 329.096 849.731 326.51C851.084 323.923 853.352 322.023 856.117 321.161C857.172 320.833 858.25 320.67 859.323 320.67C861.064 320.67 862.79 321.099 864.373 321.945L874.316 327.261L864.188 346.63L854.245 341.314ZM891.106 348.628C888.314 353.968 881.746 356.015 876.464 353.192L866.521 347.877L876.649 328.508L886.592 333.824C891.874 336.647 893.899 343.288 891.106 348.628V348.628Z" fill="white"/>
<path d="M836.649 346.893C835.928 346.863 835.306 347.435 835.276 348.171C835.246 348.907 835.811 349.529 836.539 349.56C839.225 349.673 841.76 350.785 843.679 352.692C845.743 354.743 846.893 357.484 846.918 360.41C846.943 363.336 845.84 366.097 843.811 368.184L835.928 376.294L820.474 360.937L828.357 352.826C829.201 351.957 830.17 351.244 831.236 350.704C831.888 350.375 832.152 349.573 831.825 348.914C831.499 348.255 830.707 347.989 830.055 348.318C828.728 348.989 827.524 349.877 826.475 350.956L808.858 369.081C805.115 372.931 804.1 378.479 805.793 383.25C806.456 385.117 807.533 386.865 809.023 388.346C809.182 388.504 809.343 388.657 809.508 388.806C812.557 391.556 816.776 392.84 820.796 392.051C823.561 391.509 826.093 390.219 828.077 388.179L845.694 370.054C848.217 367.459 849.589 364.025 849.557 360.387C849.526 356.748 848.095 353.339 845.528 350.789C843.142 348.418 839.989 347.034 836.649 346.893V346.893ZM826.194 386.308C824.181 388.379 821.419 389.559 818.561 389.584C815.673 389.604 812.937 388.494 810.873 386.443C806.612 382.209 806.553 375.259 810.74 370.951L818.624 362.84L834.078 378.197C834.078 378.197 826.196 386.307 826.194 386.308Z" fill="white"/>
<path d="M855.747 377.671C852.171 381.287 850.336 386.288 850.713 391.391C850.767 392.126 851.397 392.677 852.127 392.622C852.853 392.568 853.398 391.928 853.344 391.193C853.025 386.865 854.581 382.624 857.613 379.558C863.351 373.757 872.686 373.757 878.424 379.558C884.161 385.359 884.161 394.798 878.424 400.6C875.644 403.41 871.949 404.957 868.019 404.957C864.088 404.957 860.393 403.41 857.614 400.6C856.466 399.439 855.525 398.113 854.815 396.656C854.492 395.995 853.701 395.724 853.048 396.049C852.394 396.375 852.125 397.175 852.447 397.836C853.285 399.555 854.395 401.119 855.747 402.486C859.025 405.801 863.383 407.626 868.019 407.626C872.654 407.626 877.012 405.801 880.29 402.486C887.057 395.645 887.057 384.513 880.29 377.671C873.523 370.829 862.514 370.829 855.747 377.671V377.671Z" fill="white"/>
<path d="M873.772 397.231C874.11 397.231 874.448 397.1 874.706 396.84C875.221 396.319 875.221 395.474 874.706 394.953L863.198 383.317C862.683 382.797 861.847 382.797 861.332 383.317C860.817 383.838 860.817 384.683 861.332 385.204L872.839 396.84C873.097 397.1 873.435 397.231 873.772 397.231V397.231Z" fill="white"/>
<ellipse cx="850.046" cy="149.214" rx="76.0456" ry="76.2141" fill="#EC1A3A"/>
<path d="M819.478 129.657C820.116 129.302 820.349 128.491 819.998 127.846C819.254 126.477 818.637 125.238 818.637 123.951C818.637 122.546 819.379 121.188 820.165 119.75C821.003 118.217 821.622 116.694 822.113 115.014C822.57 113.445 823.003 111.963 823.934 111.022C824.865 110.08 826.33 109.643 827.882 109.181C829.554 108.682 831.048 108.06 832.565 107.212C833.987 106.417 835.331 105.667 836.721 105.667C838.111 105.667 839.454 106.417 840.876 107.212C842.395 108.061 843.885 108.681 845.56 109.181C847.111 109.643 848.577 110.081 849.508 111.022C850.439 111.963 850.871 113.445 851.329 115.014C851.83 116.732 852.409 118.163 853.276 119.75C854.062 121.188 854.805 122.546 854.805 123.951C854.805 125.357 854.062 126.715 853.276 128.152C852.432 129.697 851.825 131.19 851.329 132.888C850.871 134.457 850.439 135.939 849.508 136.88C848.577 137.822 847.112 138.259 845.56 138.722C843.899 139.217 842.392 139.843 840.876 140.69C839.454 141.485 838.111 142.236 836.721 142.236C835.331 142.236 833.988 141.485 832.566 140.69C831.051 139.844 829.543 139.217 827.882 138.722C826.33 138.259 824.865 137.822 823.934 136.88C823.207 136.145 822.784 135.104 822.373 133.767C822.157 133.064 821.418 132.67 820.723 132.889C820.028 133.108 819.639 133.855 819.855 134.558C820.311 136.042 820.895 137.578 822.069 138.765C823.475 140.187 825.336 140.742 827.136 141.279C828.615 141.72 829.941 142.27 831.29 143.024C832.865 143.904 834.651 144.902 836.721 144.902C838.791 144.902 840.577 143.904 842.152 143.024C843.502 142.269 844.831 141.719 846.306 141.279C848.106 140.742 849.967 140.187 851.373 138.765C852.779 137.344 853.328 135.462 853.859 133.642C854.296 132.144 854.84 130.804 855.584 129.442C856.455 127.849 857.442 126.044 857.442 123.951C857.442 121.857 856.455 120.052 855.584 118.46C854.838 117.094 854.294 115.752 853.859 114.259C853.328 112.439 852.779 110.558 851.373 109.136C849.967 107.715 848.106 107.16 846.306 106.623C844.825 106.181 843.498 105.63 842.152 104.878C840.576 103.998 838.791 103 836.721 103C834.65 103 832.865 103.998 831.29 104.878C829.941 105.632 828.613 106.182 827.136 106.623C825.336 107.16 823.475 107.715 822.069 109.136C820.663 110.558 820.114 112.439 819.583 114.259C819.151 115.74 818.598 117.105 817.857 118.46C816.987 120.053 816 121.858 816 123.951C816 125.869 816.798 127.496 817.688 129.131C818.038 129.776 818.84 130.012 819.478 129.657V129.657Z" fill="white"/>
<path d="M854.625 165.55C854.331 164.837 854.077 164.107 853.858 163.357C853.327 161.537 852.778 159.656 851.373 158.234C849.967 156.813 848.106 156.258 846.306 155.721C844.828 155.28 843.5 154.73 842.152 153.976C840.576 153.096 838.791 152.098 836.721 152.098C834.651 152.098 832.865 153.096 831.29 153.976C828.403 155.589 824.484 155.792 822.069 158.234C820.663 159.656 820.114 161.537 819.583 163.357C819.145 164.859 818.61 166.181 817.857 167.558C816.987 169.15 816 170.956 816 173.049C816 175.142 816.987 176.947 817.857 178.54C818.611 179.918 819.139 181.219 819.583 182.74C820.114 184.56 820.663 186.442 822.069 187.863C823.475 189.285 825.336 189.84 827.136 190.377C828.612 190.817 829.936 191.365 831.29 192.122C832.865 193.002 834.651 194 836.721 194C838.791 194 840.576 193.002 842.152 192.122C843.526 191.354 844.813 190.822 846.306 190.377C848.106 189.84 849.967 189.285 851.373 187.863C852.779 186.442 853.327 184.56 853.859 182.74C854.29 181.261 854.845 179.892 855.584 178.54C856.455 176.947 857.441 175.142 857.441 173.049C857.441 170.956 856.455 169.15 855.584 167.558C855.225 166.901 854.907 166.233 854.625 165.55V165.55ZM853.276 177.251C852.439 178.78 851.82 180.304 851.329 181.986C850.871 183.555 850.439 185.037 849.508 185.978C848.577 186.92 847.111 187.357 845.56 187.819C843.878 188.321 842.414 188.929 840.876 189.788C839.454 190.583 838.111 191.333 836.721 191.333C835.331 191.333 833.988 190.583 832.566 189.788C831.023 188.926 829.568 188.322 827.882 187.82C826.33 187.357 824.865 186.92 823.934 185.978C823.002 185.037 822.57 183.555 822.112 181.986C821.616 180.284 821.011 178.798 820.165 177.25C819.379 175.812 818.637 174.454 818.637 173.049C818.637 171.643 819.379 170.285 820.165 168.848C820.999 167.323 821.625 165.783 822.113 164.111C822.57 162.543 823.003 161.061 823.934 160.12C824.865 159.178 826.33 158.741 827.882 158.278C829.567 157.775 831.029 157.168 832.566 156.309C833.988 155.515 835.331 154.764 836.721 154.764C838.111 154.764 839.454 155.515 840.876 156.31C842.425 157.175 843.84 157.765 845.56 158.278C847.112 158.741 848.577 159.178 849.508 160.12C850.439 161.061 850.871 162.543 851.329 164.111C851.815 165.776 852.446 167.328 853.276 168.848C854.062 170.285 854.805 171.644 854.805 173.049C854.804 174.454 854.062 175.812 853.276 177.251V177.251Z" fill="white"/>
<path d="M883.073 184.914C883.005 182.558 882.284 179.028 879.288 175.395V166.331C879.288 165.595 878.698 164.998 877.97 164.998C877.241 164.998 876.651 165.595 876.651 166.331V174.554H873.123V122.447H876.651V160.105C876.651 160.841 877.241 161.438 877.97 161.438C878.698 161.438 879.288 160.841 879.288 160.105V121.606C882.284 117.974 883.005 114.444 883.073 112.088C883.108 110.88 882.989 109.824 882.71 108.858C881.73 105.464 878.44 103.001 874.887 103.001C872.685 103.001 870.65 103.856 869.159 105.408C867.524 107.11 866.628 109.545 866.701 112.087C866.769 114.443 867.49 117.973 870.486 121.606V175.395C867.49 179.028 866.769 182.558 866.701 184.914C866.628 187.456 867.524 189.891 869.159 191.593C870.65 193.145 872.685 194 874.887 194C878.44 194 881.731 191.537 882.71 188.143C882.989 187.177 883.108 186.121 883.073 184.914V184.914ZM871.051 107.266C872.055 106.22 873.382 105.667 874.887 105.667C877.256 105.667 879.531 107.36 880.179 109.605C880.379 110.299 880.464 111.086 880.437 112.01C880.382 113.916 879.793 116.773 877.36 119.78H872.415C869.981 116.773 869.392 113.915 869.337 112.01C869.285 110.183 869.909 108.454 871.051 107.266V107.266ZM880.179 187.396C879.531 189.641 877.256 191.334 874.887 191.334C873.382 191.334 872.055 190.781 871.051 189.735C869.909 188.547 869.285 186.818 869.337 184.991C869.392 183.085 869.981 180.227 872.415 177.22H877.359C879.793 180.227 880.382 183.085 880.437 184.991C880.464 185.915 880.379 186.702 880.179 187.396V187.396Z" fill="white"/>
<ellipse cx="1063.05" cy="363.214" rx="76.0456" ry="76.2141" fill="#EC1A3A"/>
<path d="M1090.35 345.021H1081.76C1081.63 344.905 1081.51 344.79 1081.38 344.677C1080.96 344.282 1075 338.566 1072.68 335.936C1071.9 335.052 1071.08 334.262 1070.25 333.589L1070.15 333.514C1065.94 330.166 1060.07 330.161 1055.86 333.504L1055.78 333.57C1054.93 334.25 1054.1 335.046 1053.32 335.936C1051 338.565 1045.04 344.281 1044.62 344.676C1044.49 344.789 1044.37 344.906 1044.24 345.021H1035.65C1025.92 345.021 1018 353.025 1018 362.863C1018 372.701 1025.92 380.705 1035.65 380.705H1038.75C1043.66 389.084 1052.69 394.716 1063 394.716C1073.31 394.716 1082.34 389.084 1087.24 380.705H1090.35C1094.25 380.705 1097.95 379.439 1101.05 377.045C1101.63 376.598 1101.74 375.762 1101.3 375.177C1100.86 374.592 1100.03 374.481 1099.45 374.928C1096.82 376.964 1093.67 378.04 1090.35 378.04H1088.62C1089.08 377.039 1089.47 376.007 1089.81 374.948H1090.35C1096.94 374.948 1102.31 369.527 1102.31 362.863C1102.31 356.199 1096.94 350.777 1090.35 350.777H1086.64C1085.95 349.699 1085.18 348.666 1084.35 347.685H1090.35C1098.63 347.685 1105.36 354.494 1105.36 362.863C1105.36 365.614 1104.63 368.31 1103.23 370.659C1102.85 371.29 1103.05 372.109 1103.68 372.488C1104.3 372.867 1105.11 372.663 1105.49 372.033C1107.13 369.269 1108 366.098 1108 362.863C1108 353.025 1100.08 345.021 1090.35 345.021V345.021ZM1035.65 378.04C1027.37 378.04 1020.64 371.232 1020.64 362.863C1020.64 354.494 1027.37 347.686 1035.65 347.686H1041.66C1040.82 348.664 1040.06 349.697 1039.36 350.778H1035.65C1029.06 350.778 1023.69 356.199 1023.69 362.863C1023.69 369.527 1029.06 374.949 1035.65 374.949H1036.19C1036.53 376.007 1036.92 377.04 1037.38 378.041H1035.65V378.04ZM1090.35 353.442C1095.49 353.442 1099.67 357.668 1099.67 362.863C1099.67 368.002 1095.58 372.19 1090.52 372.279C1090.93 370.334 1091.16 368.316 1091.16 366.246C1091.16 361.743 1090.1 357.369 1088.15 353.442H1090.35ZM1088.52 366.246C1088.52 380.475 1077.07 392.051 1063 392.051C1048.93 392.051 1037.48 380.475 1037.48 366.246C1037.48 365.366 1037.52 364.479 1037.61 363.609C1037.68 362.877 1037.16 362.223 1036.43 362.149C1035.71 362.075 1035.06 362.608 1034.99 363.34C1034.89 364.299 1034.84 365.276 1034.84 366.246C1034.84 368.316 1035.06 370.334 1035.48 372.279C1030.42 372.19 1026.33 368.002 1026.33 362.863C1026.33 357.668 1030.51 353.442 1035.65 353.442H1037.85C1037.28 354.57 1036.79 355.737 1036.38 356.936C1036.15 357.632 1036.51 358.39 1037.2 358.631C1037.89 358.871 1038.64 358.503 1038.87 357.807C1040.35 353.509 1042.94 349.659 1046.37 346.676C1046.38 346.662 1046.4 346.648 1046.41 346.634C1046.67 346.385 1052.82 340.504 1055.28 337.71C1055.97 336.934 1056.69 336.243 1057.42 335.658L1057.49 335.598C1060.74 333.019 1065.27 333.023 1068.52 335.608L1068.6 335.674C1069.33 336.254 1070.04 336.939 1070.72 337.71C1073.18 340.505 1079.33 346.385 1079.59 346.634C1079.6 346.648 1079.62 346.662 1079.63 346.676C1085.28 351.588 1088.52 358.721 1088.52 366.246Z" fill="white"/>
<path d="M1079.05 364.74C1078.98 364.777 1072.16 368.462 1064.51 368.683H1061.49C1053.84 368.461 1047.02 364.777 1046.96 364.741C1046.32 364.389 1045.52 364.629 1045.17 365.276C1044.82 365.923 1045.06 366.732 1045.7 367.083C1046 367.247 1053.13 371.113 1061.43 371.347C1061.44 371.347 1061.46 371.347 1061.47 371.347H1064.53C1064.54 371.347 1064.56 371.347 1064.57 371.347C1072.87 371.113 1080 367.247 1080.3 367.083C1080.94 366.732 1081.18 365.924 1080.83 365.277C1080.48 364.63 1079.68 364.39 1079.05 364.74Z" fill="white"/>
<path d="M1051.51 357.514C1051.71 357.623 1056.45 360.192 1061.97 360.347C1061.98 360.348 1061.99 360.348 1062 360.348H1064C1064.01 360.348 1064.02 360.348 1064.03 360.347C1069.55 360.192 1074.29 357.623 1074.49 357.514C1075.13 357.163 1075.37 356.355 1075.02 355.709C1074.67 355.062 1073.87 354.822 1073.23 355.171C1073.19 355.194 1068.84 357.54 1063.98 357.683H1062.02C1057.16 357.54 1052.81 355.194 1052.77 355.172C1052.13 354.821 1051.33 355.06 1050.98 355.707C1050.63 356.354 1050.87 357.163 1051.51 357.514Z" fill="white"/>
<path d="M1073.23 375.74C1073.19 375.763 1068.86 378.108 1063.98 378.251H1062.02C1057.16 378.109 1052.81 375.763 1052.77 375.74C1052.13 375.389 1051.33 375.629 1050.98 376.275C1050.63 376.922 1050.87 377.731 1051.51 378.082C1051.71 378.191 1056.45 380.76 1061.97 380.916C1061.98 380.916 1061.99 380.916 1062 380.916H1064C1064.01 380.916 1064.02 380.916 1064.03 380.916C1069.55 380.76 1074.29 378.191 1074.49 378.082C1075.13 377.731 1075.37 376.922 1075.02 376.275C1074.67 375.629 1073.87 375.389 1073.23 375.74Z" fill="white"/>
<ellipse cx="1063.05" cy="149.214" rx="76.0456" ry="76.2141" fill="#EC1A3A"/>
<path d="M1059.55 169.72H1067.15C1069.54 169.72 1071.49 167.751 1071.49 165.33V156.746C1071.49 155.793 1072.26 155.018 1073.2 155.018H1081.69C1084.08 155.018 1086.03 153.048 1086.03 150.627V142.948C1086.03 140.527 1084.08 138.557 1081.69 138.557H1073.2C1072.26 138.557 1071.49 137.782 1071.49 136.829V128.245C1071.49 125.824 1069.54 123.855 1067.15 123.855H1059.55C1057.16 123.855 1055.21 125.824 1055.21 128.245V129.195C1055.21 129.93 1055.8 130.526 1056.53 130.526C1057.25 130.526 1057.84 129.93 1057.84 129.195V128.245C1057.84 127.292 1058.61 126.517 1059.55 126.517H1067.15C1068.09 126.517 1068.86 127.292 1068.86 128.245V136.829C1068.86 139.25 1070.81 141.219 1073.2 141.219H1081.69C1082.63 141.219 1083.4 141.995 1083.4 142.948V150.627C1083.4 151.581 1082.63 152.356 1081.69 152.356H1073.2C1070.81 152.356 1068.86 154.325 1068.86 156.746V165.33C1068.86 166.283 1068.09 167.058 1067.15 167.058H1059.55C1058.61 167.058 1057.84 166.283 1057.84 165.33V156.746C1057.84 154.325 1055.89 152.356 1053.5 152.356H1045.01C1044.07 152.356 1043.3 151.58 1043.3 150.627V142.948C1043.3 141.995 1044.07 141.219 1045.01 141.219H1053.5C1055.89 141.219 1057.84 139.25 1057.84 136.829V135.27C1057.84 134.535 1057.25 133.939 1056.53 133.939C1055.8 133.939 1055.21 134.535 1055.21 135.27V136.829C1055.21 137.782 1054.44 138.557 1053.5 138.557H1045.01C1042.62 138.557 1040.67 140.527 1040.67 142.948V150.627C1040.67 153.048 1042.62 155.018 1045.01 155.018H1053.5C1054.44 155.018 1055.21 155.793 1055.21 156.746V165.33C1055.21 167.751 1057.16 169.72 1059.55 169.72V169.72Z" fill="white"/>
<path d="M1091.17 118.654C1083.74 111.139 1073.86 107 1063.35 107C1052.84 107 1042.96 111.139 1035.53 118.654C1028.09 126.168 1024 136.16 1024 146.787C1024 159.783 1030.25 171.906 1040.76 179.367C1040.65 182.837 1039.97 188.666 1036.89 193.265C1036.22 194.264 1036.19 195.522 1036.8 196.55C1037.35 197.465 1038.3 198 1039.34 198C1039.46 198 1039.58 197.993 1039.7 197.979C1044.9 197.369 1054.39 195.057 1060.44 186.465C1061.42 186.538 1062.39 186.575 1063.35 186.575C1074.56 186.575 1085.27 181.717 1092.74 173.247C1093.22 172.698 1093.17 171.857 1092.63 171.368C1092.09 170.879 1091.26 170.928 1090.77 171.476C1083.81 179.38 1073.81 183.913 1063.35 183.913C1062.22 183.913 1061.07 183.858 1059.91 183.75C1059.43 183.705 1058.97 183.93 1058.7 184.337C1053.27 192.572 1044.27 194.763 1039.4 195.335C1039.25 195.353 1039.13 195.296 1039.05 195.168C1039.01 195.091 1038.95 194.936 1039.07 194.758C1042.75 189.255 1043.37 182.329 1043.4 178.691C1043.41 178.244 1043.19 177.824 1042.82 177.574C1032.69 170.65 1026.63 159.141 1026.63 146.787C1026.63 126.316 1043.1 109.662 1063.35 109.662C1083.6 109.662 1100.07 126.316 1100.07 146.787C1100.07 153.89 1098.08 160.792 1094.31 166.748C1093.92 167.368 1094.1 168.191 1094.72 168.586C1095.33 168.982 1096.14 168.801 1096.53 168.181C1100.57 161.797 1102.7 154.399 1102.7 146.787C1102.7 136.16 1098.61 126.168 1091.17 118.654V118.654Z" fill="white"/>
<ellipse cx="637.046" cy="363.214" rx="76.0456" ry="76.2141" fill="#EC1A3A"/>
<path d="M660.414 318H654.276C653.556 318 652.972 318.597 652.972 319.333C652.972 320.069 653.556 320.666 654.276 320.666H660.414C661.443 320.666 662.28 321.522 662.28 322.574V404.426C662.28 405.478 661.443 406.334 660.414 406.334H623.922C623.202 406.334 622.618 406.931 622.618 407.667C622.618 408.403 623.202 409 623.922 409H660.414C662.88 409 664.887 406.948 664.887 404.426V322.574C664.887 320.052 662.88 318 660.414 318V318Z" fill="white"/>
<path d="M617.785 406.334H611.474C610.445 406.334 609.608 405.478 609.608 404.426V330.682L617.133 330.702H617.14C618.531 330.702 619.665 329.547 619.669 328.123L619.689 320.666H648.268C648.988 320.666 649.572 320.069 649.572 319.333C649.572 318.597 648.988 318 648.268 318H618.388C618.07 318 617.71 318.148 617.48 318.377C617.479 318.377 607.406 328.379 607.396 328.389C607.15 328.632 607 328.995 607 329.345V404.426C607 406.948 609.007 409 611.474 409H617.785C618.505 409 619.088 408.403 619.088 407.667C619.088 406.931 618.505 406.334 617.785 406.334V406.334ZM616.19 323.374L617.076 322.494L617.061 328.036L611.51 328.021L616.19 323.374Z" fill="white"/>
<path d="M634.612 331.981C634.612 329.259 632.356 327.044 629.584 327.044H625.98C625.979 327.044 625.978 327.044 625.977 327.044C625.977 327.044 625.976 327.044 625.975 327.044C625.255 327.044 624.672 327.641 624.672 328.377V342.245C624.672 342.981 625.255 343.578 625.975 343.578C626.695 343.578 627.279 342.981 627.279 342.245V337.259L632.329 343.126C632.587 343.425 632.947 343.578 633.309 343.578C633.615 343.578 633.922 343.469 634.17 343.246C634.71 342.759 634.763 341.917 634.287 341.364L630.403 336.852C632.787 336.467 634.612 334.43 634.612 331.981ZM629.584 334.252C629.058 334.252 628.096 334.256 627.301 334.261C627.297 333.462 627.293 332.503 627.293 331.981C627.293 331.541 627.29 330.545 627.288 329.71H629.584C630.896 329.71 632.004 330.75 632.004 331.981C632.004 333.212 630.896 334.252 629.584 334.252Z" fill="white"/>
<path d="M635.274 349.83C635.509 350.011 635.785 350.099 636.058 350.099C636.453 350.099 636.844 349.916 637.1 349.568L639.983 345.659L643.021 349.751C643.277 350.096 643.666 350.278 644.06 350.278C644.335 350.278 644.612 350.19 644.847 350.007C645.421 349.562 645.533 348.726 645.098 348.139L641.615 343.446L644.544 339.475C644.977 338.887 644.863 338.051 644.288 337.607C643.712 337.164 642.895 337.281 642.462 337.869L639.976 341.239L637.473 337.866C637.037 337.28 636.219 337.165 635.646 337.61C635.072 338.055 634.96 338.891 635.395 339.478L638.345 343.452L635.018 347.963C634.585 348.551 634.699 349.387 635.274 349.83V349.83Z" fill="white"/>
<path d="M654.058 355.359H615.977C615.257 355.359 614.673 355.956 614.673 356.693C614.673 357.429 615.257 358.026 615.977 358.026H654.058C654.778 358.026 655.362 357.429 655.362 356.693C655.362 355.956 654.778 355.359 654.058 355.359Z" fill="white"/>
<path d="M615.977 365.54H654.058C654.778 365.54 655.362 364.943 655.362 364.207C655.362 363.471 654.778 362.874 654.058 362.874H615.977C615.257 362.874 614.673 363.471 614.673 364.207C614.673 364.943 615.257 365.54 615.977 365.54V365.54Z" fill="white"/>
<path d="M615.977 373.055H640.472C641.192 373.055 641.776 372.458 641.776 371.722C641.776 370.985 641.192 370.388 640.472 370.388H615.977C615.257 370.388 614.673 370.985 614.673 371.722C614.673 372.458 615.257 373.055 615.977 373.055V373.055Z" fill="white"/>
<path d="M641.991 396.55C642.452 397.535 643.404 398.059 644.599 397.991C645.437 397.943 646.08 397.496 646.598 397.065C647.245 396.528 647.85 395.934 648.405 395.295C649.19 396.704 650.875 397.604 652.615 397.483C654.071 397.383 655.525 396.652 656.819 395.368C657.336 394.856 657.348 394.012 656.847 393.483C656.345 392.955 655.52 392.942 655.003 393.455C654.414 394.039 653.491 394.751 652.44 394.823C651.638 394.877 650.836 394.447 650.608 393.841C650.383 393.241 650.584 392.41 650.849 391.466C651.036 390.801 650.693 390.1 650.061 389.853C649.429 389.606 648.717 389.894 648.422 390.518C647.606 392.24 646.407 393.789 644.954 394.996C644.611 395.281 644.488 395.324 644.453 395.329C644.395 395.333 644.351 395.332 644.319 395.329C644.247 395.032 644.259 394.052 645.011 392.124C645.676 390.423 646.477 389.088 646.668 388.867C647.15 388.32 647.108 387.478 646.573 386.985C646.038 386.492 645.213 386.535 644.731 387.082C644.731 387.083 644.731 387.083 644.731 387.083C642.327 389.809 639.704 392.331 636.896 394.617C638.895 390.007 641.029 385.433 643.264 380.964C643.592 380.309 643.338 379.506 642.697 379.17C642.056 378.835 641.27 379.095 640.942 379.75C637.949 385.735 635.134 391.911 632.578 398.105C632.353 398.65 632.506 399.281 632.954 399.655C633.193 399.855 633.486 399.956 633.78 399.956C634.035 399.956 634.292 399.88 634.514 399.724C637.065 397.945 639.495 395.987 641.785 393.869C641.598 394.972 641.668 395.86 641.991 396.55V396.55Z" fill="white"/>
<ellipse cx="637.046" cy="149.214" rx="76.0456" ry="76.2141" fill="#EC1A3A"/>
<path d="M652.078 154.013C652.078 151.189 649.806 148.893 647.014 148.893C644.222 148.893 641.95 151.19 641.95 154.013C641.95 156.836 644.222 159.133 647.014 159.133C649.806 159.133 652.078 156.836 652.078 154.013ZM647.014 156.469C645.675 156.469 644.585 155.367 644.585 154.013C644.585 152.659 645.675 151.557 647.014 151.557C648.353 151.557 649.443 152.659 649.443 154.013C649.443 155.367 648.353 156.469 647.014 156.469Z" fill="white"/>
<path d="M656.255 138.919C654.85 134.383 651.724 131.265 648.454 128.023C647.877 127.45 647.546 126.652 647.547 125.834L647.547 124.605H648.263C649.888 124.605 651.211 123.267 651.211 121.624V118.875C651.211 117.254 649.925 115.935 648.331 115.897V107.873C648.331 105.737 646.613 104 644.501 104H629.621C627.509 104 625.79 105.737 625.79 107.873C625.79 108.608 626.38 109.205 627.108 109.205C627.836 109.205 628.426 108.608 628.426 107.873C628.426 107.206 628.962 106.665 629.621 106.665H644.501C645.16 106.665 645.696 107.207 645.696 107.873V115.894H628.426V114.089C628.426 113.354 627.836 112.757 627.108 112.757C626.381 112.757 625.791 113.354 625.791 114.089V115.897C624.197 115.935 622.911 117.254 622.911 118.875V121.624C622.911 123.267 624.234 124.605 625.859 124.605H626.619C626.619 124.605 626.618 125.82 626.618 125.821C626.616 128.059 624.063 129.634 622.653 131.029C620.979 132.685 619.639 134.646 618.688 136.783C617.869 138.62 617.339 140.587 617.13 142.601C617.065 143.225 617.031 143.853 617.029 144.484C617.025 144.526 617 187.705 617 187.705C616.999 189.624 617.76 191.489 619.104 192.85C620.197 193.955 621.579 194.661 623.079 194.896C623.085 194.897 623.092 194.898 623.098 194.899C623.186 194.912 623.274 194.923 623.363 194.933C623.397 194.937 623.431 194.942 623.465 194.946C623.522 194.952 623.579 194.955 623.636 194.959C623.819 194.974 624.003 194.983 624.19 194.983C624.19 194.983 649.885 195 649.89 195C650.61 195 651.314 194.893 651.985 194.688C653.101 194.346 654.125 193.73 654.974 192.873C656.306 191.527 657.051 189.747 657.081 187.848C657.082 187.808 657.113 144.56 657.113 144.56C657.114 142.638 656.818 140.735 656.255 138.919V138.919ZM625.86 121.94C625.687 121.94 625.547 121.798 625.547 121.624V118.875C625.547 118.7 625.687 118.558 625.86 118.558H648.263C648.435 118.558 648.576 118.7 648.576 118.875V121.624C648.576 121.798 648.435 121.94 648.263 121.94H625.86ZM645.566 128.502H628.59C629.019 127.682 629.253 126.76 629.253 125.823L629.254 124.605H637.083L644.912 124.61L644.911 125.833C644.911 126.766 645.142 127.684 645.566 128.502V128.502ZM619.766 142.742C619.955 141.058 620.405 139.415 621.089 137.877C621.906 136.042 623.058 134.357 624.496 132.934L626.283 131.166H647.861L649.66 132.95C652.428 135.694 654.128 139.412 654.428 143.303L619.714 143.281C619.728 143.101 619.746 142.921 619.766 142.742V142.742ZM648.05 173.649L654.458 173.653C654.458 173.653 654.448 187.759 654.448 187.774C654.435 188.988 653.962 190.128 653.111 190.987C652.257 191.851 651.097 192.335 649.893 192.335C649.891 192.335 649.889 192.335 649.888 192.335C649.888 192.335 624.192 192.319 624.192 192.319C623.235 192.318 622.321 192.018 621.55 191.452C620.376 190.591 619.635 189.179 619.636 187.707C619.636 187.705 619.646 173.631 619.646 173.631C619.646 173.631 641.897 173.645 641.898 173.645C642.625 173.645 643.215 173.049 643.215 172.314C643.216 171.578 642.626 170.981 641.899 170.981L619.647 170.967L619.664 145.946L654.471 145.968L654.455 170.989C654.455 170.989 648.051 170.985 648.05 170.985C647.323 170.985 646.733 171.581 646.733 172.316C646.732 173.052 647.322 173.649 648.05 173.649V173.649Z" fill="white"/>
<path d="M633.249 112.103V110.456C633.249 109.72 632.659 109.124 631.931 109.124C631.204 109.124 630.614 109.72 630.614 110.456V112.103C630.614 112.839 631.204 113.435 631.931 113.435C632.659 113.435 633.249 112.839 633.249 112.103Z" fill="white"/>
<path d="M638.379 112.103V110.456C638.379 109.72 637.789 109.124 637.061 109.124C636.334 109.124 635.744 109.72 635.744 110.456V112.103C635.744 112.839 636.334 113.435 637.061 113.435C637.789 113.435 638.379 112.839 638.379 112.103Z" fill="white"/>
<path d="M643.508 112.103V110.456C643.508 109.72 642.919 109.124 642.191 109.124C641.463 109.124 640.873 109.72 640.873 110.456V112.103C640.873 112.839 641.463 113.435 642.191 113.435C642.919 113.435 643.508 112.839 643.508 112.103Z" fill="white"/>
</svg>
