<svg width="408" height="408" viewBox="0 0 408 408" fill="none" xmlns="http://www.w3.org/2000/svg">
<circle cx="204" cy="204" r="160" fill="#EC1A3A"/>
<path fill-rule="evenodd" clip-rule="evenodd" d="M159.847 14.9747C173.936 11.7201 188.612 10 203.69 10C310.833 10 397.69 96.8568 397.69 204C397.69 210.176 397.401 216.285 396.837 222.313L406.793 223.249C407.386 216.912 407.69 210.492 407.69 204C407.69 91.3339 316.356 0 203.69 0C187.789 0 172.313 1.81921 157.459 5.26086L159.847 14.9747ZM368.507 324.237L360.276 318.551C324.977 366.721 267.986 398 203.69 398C111.132 398 33.7127 333.181 14.3502 246.46L4.64375 248.886C25.0927 339.958 106.445 408 203.69 408C271.397 408 331.4 375.015 368.507 324.237ZM109.932 34.1193C56.148 63.8663 17.9898 118.413 10.8861 182.331L1 180.75C8.64379 113.375 49.1068 55.9538 106.015 24.8594L109.932 34.1193Z" fill="#EC1A3A"/>
<path fill-rule="evenodd" clip-rule="evenodd" d="M58.6453 96.1246C36.2507 126.25 23 163.578 23 204C23 217.968 24.5822 231.567 27.5773 244.626L36.2557 242.767C33.3879 230.307 31.8726 217.331 31.8726 204C31.8726 165.783 44.3274 130.475 65.3995 101.914L58.6453 96.1246ZM164.639 36.3939L162.39 27.8059C175.75 24.6628 189.681 23 204 23C246.17 23 284.972 37.4215 315.743 61.6016L309.837 68.2462C280.643 45.4538 243.907 31.8727 204 31.8727C190.457 31.8727 177.28 33.4367 164.639 36.3939ZM372.333 167.889C374.819 179.533 376.127 191.614 376.127 204C376.127 268.495 340.656 324.705 288.159 354.186L292.468 361.943C347.688 330.947 385 271.831 385 204C385 190.634 383.551 177.607 380.802 165.066L372.333 167.889ZM243.71 380.63L240.889 372.166C229.005 374.76 216.662 376.128 204 376.128C140.228 376.128 84.5555 341.447 54.8149 289.916L47.485 294.966C78.8465 348.81 137.197 385 204 385C217.642 385 230.931 383.491 243.71 380.63Z" fill="#EC1A3A"/>
</svg>
